<?xml version="1.0" encoding="UTF-8" standalone="no"?>
<svg
   id="Outline"
   viewBox="0 0 24 24"
   width="512"
   height="512"
   version="1.1"
   sodipodi:docname="cross.svg"
   inkscape:version="1.3 (0e150ed6c4, 2023-07-21)"
   xmlns:inkscape="http://www.inkscape.org/namespaces/inkscape"
   xmlns:sodipodi="http://sodipodi.sourceforge.net/DTD/sodipodi-0.dtd"
   xmlns="http://www.w3.org/2000/svg"
   xmlns:svg="http://www.w3.org/2000/svg">
  <defs
     id="defs1" />
  <sodipodi:namedview
     id="namedview1"
     pagecolor="#ffffff"
     bordercolor="#000000"
     borderopacity="0.25"
     inkscape:showpageshadow="2"
     inkscape:pageopacity="0.0"
     inkscape:pagecheckerboard="0"
     inkscape:deskcolor="#d1d1d1"
     inkscape:zoom="1.4628906"
     inkscape:cx="255.65821"
     inkscape:cy="256"
     inkscape:window-width="1680"
     inkscape:window-height="987"
     inkscape:window-x="-8"
     inkscape:window-y="-8"
     inkscape:window-maximized="1"
     inkscape:current-layer="Outline" />
  <path
     d="M18,6h0a1,1,0,0,0-1.414,0L12,10.586,7.414,6A1,1,0,0,0,6,6H6A1,1,0,0,0,6,7.414L10.586,12,6,16.586A1,1,0,0,0,6,18H6a1,1,0,0,0,1.414,0L12,13.414,16.586,18A1,1,0,0,0,18,18h0a1,1,0,0,0,0-1.414L13.414,12,18,7.414A1,1,0,0,0,18,6Z"
     id="path1"
     style="fill:#f9f9f9" />
</svg>
