<?xml version="1.0" encoding="UTF-8" standalone="no"?>
<svg
   id="arrow-circle-down"
   viewBox="0 0 24 24"
   width="512"
   height="512"
   version="1.1"
   sodipodi:docname="exchange.svg"
   inkscape:version="1.3 (0e150ed6c4, 2023-07-21)"
   xmlns:inkscape="http://www.inkscape.org/namespaces/inkscape"
   xmlns:sodipodi="http://sodipodi.sourceforge.net/DTD/sodipodi-0.dtd"
   xmlns="http://www.w3.org/2000/svg"
   xmlns:svg="http://www.w3.org/2000/svg">
  <defs
     id="defs1" />
  <sodipodi:namedview
     id="namedview1"
     pagecolor="#ffffff"
     bordercolor="#000000"
     borderopacity="0.25"
     inkscape:showpageshadow="2"
     inkscape:pageopacity="0.0"
     inkscape:pagecheckerboard="0"
     inkscape:deskcolor="#d1d1d1"
     inkscape:zoom="1.0344199"
     inkscape:cx="273.5833"
     inkscape:cy="239.26454"
     inkscape:window-width="1680"
     inkscape:window-height="987"
     inkscape:window-x="-8"
     inkscape:window-y="-8"
     inkscape:window-maximized="1"
     inkscape:current-layer="arrow-circle-down" />
  <path
     d="M 1.3962081,7.1560132 A 1.325474,1.325474 0 0 1 2.7216822,5.8305392 H 17.301896 V 3.5763497 a 0.86420905,0.86420905 0 0 1 1.47216,-0.6185545 l 3.544317,3.497484 a 0.95964318,0.95964318 0 0 1 0,1.3661219 l -3.544317,3.4983669 a 0.8650927,0.8650927 0 0 1 -1.47216,-0.618554 V 8.4814872 H 2.7216822 A 1.325474,1.325474 0 0 1 1.3962081,7.1560132 Z M 21.278318,15.550681 H 6.6981042 V 13.296492 A 0.86420905,0.86420905 0 0 0 5.2259444,12.677937 l -3.5443175,3.501019 a 0.95964318,0.95964318 0 0 0 0,1.366122 l 3.5443175,3.498368 A 0.8650927,0.8650927 0 0 0 6.6981042,20.427542 V 18.201629 H 21.278318 a 1.325474,1.325474 0 0 0 0,-2.650948 z"
     id="path1"
     style="fill:#ffffff;fill-opacity:1;stroke-width:0.883649" />
</svg>
