<?xml version="1.0" encoding="UTF-8" standalone="no"?>
<!-- Created with Inkscape (http://www.inkscape.org/) -->

<svg
   width="1280"
   height="720"
   viewBox="0 0 338.66666 190.5"
   version="1.1"
   id="svg1"
   inkscape:version="1.3 (0e150ed6c4, 2023-07-21)"
   sodipodi:docname="main_menu_background.svg"
   xmlns:inkscape="http://www.inkscape.org/namespaces/inkscape"
   xmlns:sodipodi="http://sodipodi.sourceforge.net/DTD/sodipodi-0.dtd"
   xmlns="http://www.w3.org/2000/svg"
   xmlns:svg="http://www.w3.org/2000/svg">
  <sodipodi:namedview
     id="namedview1"
     pagecolor="#2d2d2d"
     bordercolor="#000000"
     borderopacity="0.25"
     inkscape:showpageshadow="2"
     inkscape:pageopacity="0.0"
     inkscape:pagecheckerboard="0"
     inkscape:deskcolor="#3d3d3d"
     inkscape:document-units="mm"
     inkscape:zoom="0.47181621"
     inkscape:cx="695.18596"
     inkscape:cy="533.04655"
     inkscape:window-width="1680"
     inkscape:window-height="987"
     inkscape:window-x="-8"
     inkscape:window-y="-8"
     inkscape:window-maximized="1"
     inkscape:current-layer="layer1" />
  <defs
     id="defs1" />
  <g
     inkscape:label="Layer 1"
     inkscape:groupmode="layer"
     id="layer1">
    <rect
       style="fill:#80bbc2;fill-opacity:1;stroke-width:0.0499999"
       id="rect1"
       width="338.66666"
       height="190.5"
       x="5.0862632e-06"
       y="-2.8421709e-14" />
    <g
       id="g9"
       style="display:none">
      <path
         id="path1"
         style="fill:#2c6e2c;stroke-width:0.0499999"
         d="m 187.48804,188.02265 c -8.80695,37.07373 -70.55632,70.11754 -107.785769,70.11754 -37.229448,0 -88.8711608,-37.50889 -67.409882,-68.99599 20.41141,-29.94677 61.290839,-51.59873 89.840931,-57.78047 84.50168,-18.29652 94.51032,18.1175 85.35472,56.65892 z"
         sodipodi:nodetypes="sssss" />
      <path
         id="path2"
         style="fill:#2c6e2c;stroke-width:0.0499999"
         d="m 320.76402,164.86823 c -1e-5,46.45623 -43.93692,84.11643 -98.13585,84.11643 -54.19892,0 -98.97002,-37.6677 -98.13584,-84.11643 0.81242,-45.23759 53.73696,-69.416362 98.13584,-84.116445 51.45213,-17.035353 98.13585,37.660215 98.13585,84.116445 z"
         sodipodi:nodetypes="sssss" />
      <path
         id="path3"
         style="fill:#2c6e2c;stroke-width:0.0499999"
         d="m 328.61489,117.76302 c -0.67816,43.35384 -21.84292,78.50868 -48.78753,78.50868 -26.94461,0 -48.78753,-35.14954 -48.78753,-78.50868 0,-43.35914 40.27123,-88.493029 62.24616,-72.900908 30.15344,21.39511 35.99414,30.373317 35.3289,72.900908 z"
         sodipodi:nodetypes="sssss" />
      <path
         id="path4"
         style="fill:#2c6e2c;stroke-width:0.0499999"
         d="m 361.13992,159.26047 c 0,27.87373 -21.84292,50.46986 -48.78753,50.46986 -26.94461,0 -48.78754,-22.59612 -48.78754,-50.46986 0,-27.87374 17.35671,-71.779372 44.30133,-71.779368 26.94461,10e-7 53.27374,43.905628 53.27374,71.779368 z"
         sodipodi:nodetypes="sssss" />
    </g>
    <path
       style="fill:#a6d0d5;fill-opacity:1;stroke-width:0.0499999"
       d="m 136.82941,55.516851 c 2.87235,-5.744694 -1.23685,2.166384 5.60776,-8.411644 0.6812,-1.052767 0.73865,-2.538936 1.68233,-3.364659 0.9002,-0.787677 6.68466,-1.271267 7.85087,-2.243105 1.13423,-0.94519 1.60603,-3.431032 3.36466,-4.486209 0.50687,-0.304123 1.15362,-0.296423 1.68233,-0.560777 0.60281,-0.301408 1.03429,-0.9364 1.68232,-1.121552 0.39823,-0.113782 3.3315,0.395956 3.92544,0 0.43991,-0.293273 0.61998,-0.95436 1.12155,-1.121553 2.98301,-0.994339 15.61855,2.86358 19.62717,3.364658 0.79194,0.09899 3.24126,0.1851 3.36466,0 0.32789,-0.491834 0.19151,-1.22075 0.56077,-1.682329 2.08458,-2.60572 6.32705,-3.605419 9.5332,-2.803882 3.74733,0.936834 2.34508,5.327483 2.80388,7.850867 0.21148,1.163153 0.86509,2.210591 1.12155,3.364659 0.30608,1.377328 -0.44521,3.150573 0,4.486211 0.16719,0.501573 0.99333,0.608632 1.12156,1.12155 0.18841,0.753661 0.25357,3.1647 0,3.925435 -0.3635,1.090499 -2.18491,4.428017 -2.80389,5.046986 -0.26435,0.264353 -0.78717,-0.167191 -1.12155,0 -4.07286,2.036434 -5.52649,2.907911 -10.09397,3.364658 -0.92999,0.093 -1.8874,-0.183295 -2.80388,0 -0.98708,0.197416 -1.86926,0.747702 -2.80388,1.121553 -1.12156,0 -2.24868,-0.111598 -3.36466,0 -2.73299,0.273299 -5.24247,1.768851 -7.85087,2.243106 -9.69731,1.763146 1.73548,-1.815746 -5.60776,1.121553 -1.71318,0.685271 -9.37679,0 -11.21553,0 -0.93506,0 -11.72854,0.405691 -12.33708,0 -0.34777,-0.231855 -0.26522,-0.825998 -0.56077,-1.121553 -0.35807,-0.358066 -2.4495,-1.091695 -2.80388,-1.682329 -0.39653,-0.660882 -0.25718,-1.534708 -0.56078,-2.243106 -0.26549,-0.619474 -1.00099,-1.019231 -1.12155,-1.682329 -2.26737,-12.470546 2.2654,2.31 -1.12155,-7.850868"
       id="path6" />
    <path
       style="fill:#a6d0d5;fill-opacity:1;stroke-width:0.0499999"
       d="m 220.94585,29.721143 c 2.87642,-7.75556 7.00235,-14.625967 11.7763,-21.3094989 0.24295,-0.3401227 0.213,-0.8897001 0.56078,-1.1215526 0.31106,-0.2073751 0.74975,0.039136 1.12155,0 3.18207,-0.3349546 6.37708,-0.5955337 9.5332,-1.1215526 2.45996,-0.4099941 4.83788,-1.228217 7.29009,-1.6823288 5.01677,-0.9290322 10.1083,-1.4043297 15.14097,-2.243105 2.74608,-0.4576826 6.14489,-2.49019054 8.97242,-1.68232883 2.86139,0.81753933 6.40244,4.00152403 8.97241,5.60776263 3.78831,2.3676885 7.67771,4.6367401 11.21553,7.2900911 0.47289,0.354666 1.26434,0.142799 1.68233,0.560777 2.67793,2.677942 -9.35736,15.525899 -11.21553,17.384065 -6.41154,6.41154 0.23926,-0.119634 -3.36465,1.682327 -0.47289,0.236445 -0.63066,0.925197 -1.12157,1.121553 -1.04132,0.416533 -2.26489,-0.219954 -3.36466,0 -0.81973,0.163943 -1.45004,0.857199 -2.24311,1.121553 -1.22541,0.408477 -9.79138,0.323754 -10.65474,0 -1.86925,-1.121553 -3.7385,-2.243106 -5.60776,-3.364659 -0.18692,-0.373851 -0.213,-0.889699 -0.56078,-1.12155 -0.54763,-0.365088 -8.54224,-0.0991 -9.53319,0 -1.91848,-0.643538 -3.34094,0.877829 -5.04699,1.12155 -3.47219,0.496028 -7.19655,-0.576366 -10.65475,0 -1.16613,0.194358 -2.20151,0.910071 -3.36466,1.121553 -1.42174,0.2585 -3.50747,0 -5.04698,0 -2.21732,0 -5.14156,0.537133 -7.29009,0 -2.70796,-0.67699 0.0278,-0.266491 -1.68233,-1.121553 -0.33438,-0.16719 -0.8572,0.264353 -1.12155,0 -0.47657,-0.476568 1.1044,-0.774798 1.68233,-1.12155 0.45336,-0.272018 0.68164,-0.828281 1.12155,-1.121553 0.77765,-0.518438 1.86925,0 2.80388,0 z"
       id="path7" />
    <path
       style="fill:#a6d0d5;fill-opacity:1;stroke-width:0.0499999"
       d="m 16.823288,36.450457 c 4.498788,-5.783151 9.589875,-12.365417 16.262511,-15.701735 1.003149,-0.501574 2.243106,0 3.364658,0 2.990808,0 5.981613,0 8.972421,0 4.335232,0 8.081086,0.695953 12.337078,1.121552 6.137085,0.613709 17.907339,0.383851 23.552603,-1.121552 3.986196,-1.062986 7.965969,-2.337796 11.776302,-3.925434 1.389393,-0.578915 3.621146,-2.396499 5.046985,-2.803881 1.437868,-0.410819 3.097764,0.555378 4.486214,0 0.38808,-0.155233 0.213,-0.889701 0.56077,-1.121553 0.56078,-0.373851 1.12155,0.186925 1.68233,0 4.50578,-1.501926 5.51973,-2.243105 10.09397,-2.243105 0.56078,0 1.21574,-0.311063 1.68233,0 0.0985,0.06566 0.18782,4.358333 0,5.046987 -1.46173,5.359687 -4.74764,7.618972 -9.53319,9.533196 -1.30753,0.523012 -1.20972,0.855858 -2.80389,1.121553 -0.55314,0.09219 -1.14312,-0.154058 -1.68232,0 -0.8038,0.229655 -1.43932,0.891896 -2.24311,1.121552 -3.893545,1.112441 -10.718737,-1.10327 -14.580183,0 -0.803791,0.229656 -1.442402,0.881343 -2.243103,1.121553 -3.482459,1.044736 -7.240939,1.381461 -10.654749,2.803882 -1.00611,0.419211 -1.828999,1.194885 -2.803882,1.682327 -0.501574,0.250788 -1.150329,-0.177332 -1.68233,0 -0.250785,0.08359 -0.373851,0.373851 -0.560776,0.560776 -0.747699,0.186926 -1.478344,0.465183 -2.243103,0.560777 -5.893448,0.736682 -12.0063,-0.371158 -17.944841,0 -3.627688,-0.321464 -7.095881,0.824981 -10.654749,1.121553 -1.676519,0.13971 -3.429386,-0.462172 -5.046988,0 -0.648036,0.185152 -1.056563,0.871246 -1.682327,1.121552 -2.270992,0.908397 -5.521455,-0.77647 -7.850868,0 -0.639384,0.213128 -1.00836,1.121553 -1.682329,1.121553 -1.360838,0 -2.616956,-0.747702 -3.925434,-1.121553 z"
       id="path8" />
    <path
       style="fill:#a6d0d5;fill-opacity:1;stroke-width:0.0499999"
       d="m 28.038814,109.35137 c 3.485724,-5.14559 8.192788,-16.43347 15.701734,-20.187944 2.284799,-1.142399 11.848375,1.969923 14.580185,2.243106 7.577719,0.757772 11.542567,-1.955816 19.627167,-5.046988 3.372048,-1.289312 6.636097,-2.88807 10.093973,-3.925433 0.537128,-0.161139 1.150329,0.177332 1.682329,0 0.177335,-0.05911 -0.09078,-0.397375 0,-0.560776 0.856409,-1.541534 1.800109,-3.036316 2.803883,-4.486211 0.681291,-0.984086 1.608746,-1.788907 2.243103,-2.80388 2.783371,-4.453395 5.002408,-11.559656 9.533192,-14.580184 1.01871,-0.679138 7.32113,0 8.97242,0 5.04847,0 9.76377,0.637632 14.58019,2.243105 0.95497,0.318323 1.82123,0.903185 2.80388,1.121553 3.06732,0.681628 4.98269,-0.147042 7.85087,2.243106 2.75635,2.296959 4.14469,6.053494 7.29009,7.850867 1.81813,1.038932 4.21278,2.070473 6.16854,2.803882 2.03902,0.764633 5.07349,0.587283 6.72931,2.243103 1.54017,1.540169 0.46978,2.991792 2.80388,3.925435 0.23813,0.09525 2.61949,-3.080482 5.04699,0.560777 0.2502,0.375301 1.56176,4.643218 1.68233,5.607762 0.0787,0.629949 0.56431,10.929831 0,11.7763 -1.11995,1.67992 -3.66213,2.54058 -5.04699,3.92543 -0.66088,0.66089 -0.97895,1.62765 -1.68233,2.24311 -5.42412,4.74611 -13.01519,3.92544 -19.62717,3.92544 -2.74599,0 -6.30111,-0.59363 -8.97242,0 -0.98265,0.21836 -1.81349,0.94148 -2.80388,1.12155 -1.10346,0.20063 -2.2431,0 -3.36465,0 -1.49541,0 -3.01985,0.29327 -4.48622,0 -1.39593,-0.27919 -2.54795,-1.32299 -3.92543,-1.68233 -5.11119,-1.33336 -18.410452,-2.58279 -24.113376,-1.68233 -1.927678,0.30437 -3.704736,1.24982 -5.607764,1.68233 -2.217497,0.50397 -4.51711,0.59483 -6.729315,1.12155 -1.725107,0.41074 -3.304029,1.35553 -5.046988,1.68233 -2.893261,0.54249 -6.076558,-0.52652 -8.97242,0 -1.338887,0.24343 -2.570184,0.99835 -3.925432,1.12155 -5.419437,0.49268 -11.33229,0 -16.823288,0 -0.40721,0 -15.191475,0.34018 -15.701735,0 -0.833387,-0.55559 -3.193875,-4.27273 -3.364658,-4.48621 z"
       id="path9" />
    <path
       style="fill:#2c6e2c;fill-opacity:1;stroke-width:0.0499999"
       d="m -14.580183,197.39325 c 0.934627,-1.68233 6.1353827,-29.30309 7.2900915,-30.8427 1.1102803,-1.48037 2.6169559,-2.61695 3.925434,-3.92543 6.1463194,-6.14632 12.7799479,-11.17463 20.1879455,-15.70174 3.373939,-2.06185 8.613878,-6.04902 12.337078,-7.29009 1.982642,-0.66088 4.119232,-0.71169 6.168539,-1.12155 8.055424,-1.61109 16.444737,-4.33139 24.674155,-5.04699 6.609709,-0.57476 13.541155,0 20.187946,0 4.539773,0 9.594186,-0.46581 14.019408,0 19.701566,2.07385 7.619216,1.11123 17.384066,3.36466 1.1079,0.25567 2.34767,0.0523 3.36465,0.56078 1.51939,0.75969 5.46063,5.39879 7.29009,6.72931 8.98972,6.53798 14.73757,6.56347 25.79572,6.16854 2.06334,-0.0737 4.18646,0.0173 6.16853,-0.56078 2.56931,-0.74938 4.86261,-2.23761 7.29009,-3.36465 1.25122,-0.58092 13.28974,-6.11205 15.14096,-7.29009 3.46476,-2.20485 7.48635,-6.36316 10.65475,-8.97243 4.32351,-3.56053 9.15604,-6.50847 13.45863,-10.09397 1.93194,-1.60995 3.6101,-3.51936 5.60777,-5.04699 1.19713,-0.91545 2.6715,-1.40715 3.92543,-2.2431 0.99589,-0.66393 1.7941,-1.60052 2.80388,-2.2431 4.46158,-2.83919 9.81963,-3.97137 14.58018,-6.16855 4.12953,-1.90593 8.0839,-4.573594 12.33708,-6.168534 2.07476,-0.778034 18.11662,-2.717993 20.18795,-1.682329 1.07358,0.536789 9.84933,7.657733 10.09396,7.850863 11.33996,8.9526 -0.7606,-0.16611 9.5332,6.16855 2.22576,1.36968 3.85104,2.76667 6.16855,3.92543 0.83595,0.41798 1.86925,0 2.80387,0 2.99082,0 5.99805,0.31309 8.97242,0 3.6095,-0.37995 7.04527,-1.86316 10.65477,-2.24311 6.90777,-0.72713 14.35237,0 21.30949,0 5.74254,0 12.65017,-1.12073 17.94483,1.68233 5.40716,2.86261 10.00617,10.5544 14.0194,15.14096 2.78593,3.18392 2.17964,1.379 4.48622,5.60776 0.48202,0.88371 0.63952,1.92017 1.12154,2.80389 0.64548,1.18334 1.64031,2.15902 2.24311,3.36465 0.52872,1.05741 0.64141,2.28433 1.12157,3.36466 0.98454,2.21522 1.68233,51.93752 1.68233,54.3953"
       id="path10"
       sodipodi:nodetypes="cssssssssssssssssssssssssssssssssssssc" />
  </g>
</svg>
