<?xml version="1.0" encoding="UTF-8" standalone="no"?>
<!-- Created with Inkscape (http://www.inkscape.org/) -->

<svg
   width="64"
   height="64"
   viewBox="0 0 16.933333 16.933333"
   version="1.1"
   id="svg1"
   inkscape:version="1.3 (0e150ed6c4, 2023-07-21)"
   sodipodi:docname="rock.svg"
   xmlns:inkscape="http://www.inkscape.org/namespaces/inkscape"
   xmlns:sodipodi="http://sodipodi.sourceforge.net/DTD/sodipodi-0.dtd"
   xmlns="http://www.w3.org/2000/svg"
   xmlns:svg="http://www.w3.org/2000/svg">
  <sodipodi:namedview
     id="namedview1"
     pagecolor="#2d2d2d"
     bordercolor="#000000"
     borderopacity="0.25"
     inkscape:showpageshadow="2"
     inkscape:pageopacity="0.0"
     inkscape:pagecheckerboard="0"
     inkscape:deskcolor="#3d3d3d"
     inkscape:document-units="mm"
     inkscape:zoom="3.7745296"
     inkscape:cx="2.1194694"
     inkscape:cy="84.381375"
     inkscape:window-width="1680"
     inkscape:window-height="987"
     inkscape:window-x="-8"
     inkscape:window-y="-8"
     inkscape:window-maximized="1"
     inkscape:current-layer="layer1" />
  <defs
     id="defs1">
    <inkscape:path-effect
       effect="fillet_chamfer"
       id="path-effect14"
       is_visible="true"
       lpeversion="1"
       nodesatellites_param="F,0,0,1,0,0,0,1 @ F,0,0,1,0,0,0,1 @ F,0,0,1,0,0,0,1 @ F,0,0,1,0,0,0,1 @ F,0,0,1,0,0,0,1 @ F,0,0,1,0,0,0,1 @ F,0,0,1,0,0,0,1"
       radius="0"
       unit="px"
       method="auto"
       mode="F"
       chamfer_steps="1"
       flexible="false"
       use_knot_distance="true"
       apply_no_radius="true"
       apply_with_radius="true"
       only_selected="false"
       hide_knots="false" />
    <inkscape:path-effect
       effect="fillet_chamfer"
       id="path-effect13"
       is_visible="true"
       lpeversion="1"
       nodesatellites_param="F,0,0,1,0,0,0,1 @ F,0,0,1,0,0,0,1 @ F,0,0,1,0,0,0,1 @ F,0,0,1,0,0,0,1 @ F,0,0,1,0,0,0,1 @ F,0,0,1,0,0,0,1 @ F,0,0,1,0,0,0,1"
       radius="0"
       unit="px"
       method="auto"
       mode="F"
       chamfer_steps="1"
       flexible="false"
       use_knot_distance="true"
       apply_no_radius="true"
       apply_with_radius="true"
       only_selected="false"
       hide_knots="false" />
    <inkscape:path-effect
       effect="fillet_chamfer"
       id="path-effect11"
       is_visible="true"
       lpeversion="1"
       nodesatellites_param="F,0,0,1,0,0,0,1 @ F,0,0,1,0,0,0,1 @ F,0,0,1,0,0,0,1 @ F,0,0,1,0,0,0,1 @ F,0,0,1,0,0,0,1 @ F,0,0,1,0,0,0,1 @ F,0,0,1,0,0,0,1"
       radius="0"
       unit="px"
       method="auto"
       mode="F"
       chamfer_steps="1"
       flexible="false"
       use_knot_distance="true"
       apply_no_radius="true"
       apply_with_radius="true"
       only_selected="false"
       hide_knots="false" />
    <inkscape:path-effect
       effect="fillet_chamfer"
       id="path-effect10"
       is_visible="true"
       lpeversion="1"
       nodesatellites_param="F,0,0,1,0,0,0,1 @ F,0,0,1,0,0,0,1 @ F,0,0,1,0,0,0,1 @ F,0,0,1,0,0,0,1 @ F,0,0,1,0,0,0,1 @ F,0,0,1,0,0,0,1 @ F,0,0,1,0,0,0,1"
       radius="0"
       unit="px"
       method="auto"
       mode="F"
       chamfer_steps="1"
       flexible="false"
       use_knot_distance="true"
       apply_no_radius="true"
       apply_with_radius="true"
       only_selected="false"
       hide_knots="false" />
    <inkscape:path-effect
       effect="fillet_chamfer"
       id="path-effect9"
       is_visible="true"
       lpeversion="1"
       nodesatellites_param="F,0,0,1,0,0,0,1 @ F,0,0,1,0,0,0,1 @ F,0,0,1,0,0,0,1 @ F,0,0,1,0,0,0,1 @ F,0,0,1,0,0,0,1 @ F,0,0,1,0,0,0,1 @ F,0,0,1,0,0,0,1"
       radius="0"
       unit="px"
       method="auto"
       mode="F"
       chamfer_steps="1"
       flexible="false"
       use_knot_distance="true"
       apply_no_radius="true"
       apply_with_radius="true"
       only_selected="false"
       hide_knots="false" />
    <inkscape:path-effect
       effect="fillet_chamfer"
       id="path-effect8"
       is_visible="true"
       lpeversion="1"
       nodesatellites_param="F,0,0,1,0,0,0,1 @ F,0,0,1,0,0,0,1 @ F,0,1,1,0,0,0,1 @ F,0,0,1,0,0,0,1 @ F,0,0,1,0,0,0,1 @ F,0,0,1,0,1.3192261,0,1 @ F,0,0,1,0,0,0,1"
       radius="0"
       unit="px"
       method="auto"
       mode="F"
       chamfer_steps="1"
       flexible="false"
       use_knot_distance="true"
       apply_no_radius="true"
       apply_with_radius="true"
       only_selected="false"
       hide_knots="false" />
    <inkscape:path-effect
       effect="fillet_chamfer"
       id="path-effect7"
       is_visible="true"
       lpeversion="1"
       nodesatellites_param="F,0,0,1,0,1.0794944,0,1 @ F,0,0,1,0,1.9907559,0,1 @ F,0,0,1,0,0.86920327,0,1 @ F,0,0,1,0,0.72900924,0,1"
       radius="0"
       unit="px"
       method="auto"
       mode="F"
       chamfer_steps="1"
       flexible="false"
       use_knot_distance="true"
       apply_no_radius="true"
       apply_with_radius="true"
       only_selected="false"
       hide_knots="false" />
    <inkscape:path-effect
       effect="fillet_chamfer"
       id="path-effect6"
       is_visible="true"
       lpeversion="1"
       nodesatellites_param="F,0,0,1,0,1.8085036,0,1 @ F,0,0,1,0,0.77106742,0,1 @ F,0,0,1,0,0,0,1 @ F,0,0,1,0,1.1215526,0,1"
       radius="0"
       unit="px"
       method="auto"
       mode="F"
       chamfer_steps="1"
       flexible="false"
       use_knot_distance="true"
       apply_no_radius="true"
       apply_with_radius="true"
       only_selected="false"
       hide_knots="false" />
    <inkscape:path-effect
       effect="fillet_chamfer"
       id="path-effect5"
       is_visible="true"
       lpeversion="1"
       nodesatellites_param="F,0,0,1,0,1.6332608,0,1 @ F,0,1,1,0,1.6332608,0,1 @ F,0,0,1,0,0,0,1 @ F,0,0,1,0,0,0,1"
       radius="0"
       unit="px"
       method="auto"
       mode="F"
       chamfer_steps="1"
       flexible="false"
       use_knot_distance="true"
       apply_no_radius="true"
       apply_with_radius="true"
       only_selected="false"
       hide_knots="false" />
  </defs>
  <g
     inkscape:label="Layer 1"
     inkscape:groupmode="layer"
     id="layer1"
     transform="translate(-0.2102911,-1.3318436)"
     style="fill:#999999">
    <path
       style="fill:#5d5d5d;fill-opacity:1;stroke-width:0.264583"
       d="m 5.9582478,13.844164 c -0.028125,-0.291849 -0.099646,-0.580725 -0.070097,-0.876213 0.012996,-0.12997 0.057713,-0.255504 0.070097,-0.385534 0.035061,-0.368144 -0.052261,-0.755723 0,-1.121552 0.016849,-0.117945 0.054351,-0.232388 0.070097,-0.350485 0.021931,-0.16448 -0.013475,-0.364035 0,-0.525728 C 6.0483368,10.344741 6.2660101,9.7934103 6.4138785,9.6032934 6.7039233,9.2303791 7.1492665,9.2048762 7.3952369,8.7621291 7.5334875,8.5132784 7.5825558,8.212249 7.7106737,7.9560132 7.7978182,7.7817243 7.8482563,7.7719614 7.910517,7.5851796 7.925294,7.5408466 8.0754909,7.5177624 8.0963899,7.4759642 c 0.014777,-0.029556 0.2438352,0.00696 0.2621655,-0.020531 0.00648,-0.00972 0.3245075,0.00832 0.3327675,6.27e-5 0.01605,-0.01605 0.3395198,0.010015 0.443197,0.040503 0.3144965,0.092499 0.2170536,-0.037048 0.416201,0.1620995 0.046731,0.046731 0.1027303,0.015914 0.1577185,0.052573 0.052348,0.034899 0.1212943,0.037728 0.1752425,0.070097 0.064146,0.038488 0.1129996,0.098699 0.1752421,0.140194 0.04347,0.028982 0.100525,0.036095 0.140194,0.070097 0.17523,0.1501965 0.21892,0.367742 0.315437,0.5607762 0.01884,0.037676 0.05445,0.066035 0.0701,0.1051456 0.0087,0.021693 -0.01045,0.049198 0,0.070097 0.125204,0.250408 0.38612,0.4265938 0.525728,0.6659218 0.05585,0.095735 0.03865,0.2267702 0.105145,0.3154368 0.01567,0.0209 0.05163,0.016576 0.0701,0.035049 0.0083,0.00826 -0.0083,0.026787 0,0.035049 0.08261,0.08261 0.204924,0.1211059 0.280389,0.2102911 0.09212,0.1088643 0.160745,0.2356793 0.245339,0.3504853 0.254279,0.345093 0.485213,0.704186 0.736019,1.051456 0.05691,0.07879 0.266428,0.294496 0.350485,0.420582 0.07839,0.117585 0.05134,0.560323 0.0701,0.70097 0.03501,0.26259 0.170567,0.512859 0.210291,0.771067 0.02862,0.18603 -0.04587,0.412362 0,0.595824 0.01267,0.05069 0.05358,0.09063 0.0701,0.140196 0.01934,0.05803 0.01849,0.626988 0,0.70097 -0.01901,0.07603 -0.05959,0.146518 -0.105145,0.210291 -0.02881,0.04033 -0.07634,0.06481 -0.105146,0.105146 -0.03037,0.04251 -0.03875,0.0984 -0.0701,0.140194 -0.0077,0.01029 -0.490679,0.10257 -0.490679,0.210291"
       id="path47"
       sodipodi:nodetypes="csssssssssssscssssssccccccsscscssscsccc" />
    <path
       style="fill:#666666;fill-opacity:1;stroke-width:0.264583"
       d="m 10.374361,16.928433 c -0.05841,0 -0.117623,-0.0096 -0.175243,0 -0.0839,0.01398 -0.161444,0.05612 -0.2453394,0.0701 -0.2132695,0.03554 -0.4887092,0 -0.7009701,0 -0.2570226,0 -0.5142349,0.0099 -0.7710676,0 -0.6378082,-0.02453 -0.3214296,-0.03905 -0.9112612,-0.0701 -0.081667,-0.0043 -0.1638956,0.0074 -0.2453397,0 -0.047972,-0.0044 -0.093463,-0.02336 -0.1401942,-0.03505 -0.093463,-0.01168 -0.1865233,-0.02723 -0.2803879,-0.03505 -0.074532,-0.0062 -0.2404761,0.02499 -0.3154368,0 -0.039961,-0.01332 -0.065184,-0.05678 -0.1051454,-0.0701 -0.0665,-0.02217 -0.1418635,0.01521 -0.2102911,0 -0.1190681,-0.02646 -0.2321547,-0.07556 -0.3504854,-0.105145 -0.068942,-0.01723 -0.1428739,-0.01258 -0.2102911,-0.03505 -0.049566,-0.01652 -0.089507,-0.05742 -0.1401939,-0.0701 C 5.3672377,16.526579 5.226736,16.616002 5.011938,16.472803 4.7715815,16.312565 4.6014997,16.058214 4.416113,15.841929 4.313824,15.722592 4.2118171,15.602585 4.1006765,15.491444 3.9878394,15.378607 3.9650254,15.434976 3.925434,15.316202 c -0.028004,-0.08401 -0.020966,-0.33672 0,-0.420582 0.015258,-0.06104 0.059754,-0.113185 0.070097,-0.175243 0.016875,-0.101251 -0.014465,-0.347147 0,-0.455631 0.017264,-0.129472 0.038417,-0.258815 0.070097,-0.385534 0.036944,-0.147777 0.1625886,-0.257645 0.2453397,-0.385533 0.1144169,-0.176827 0.2401022,-0.346356 0.3504851,-0.525728 0.041074,-0.06674 0.061673,-0.145082 0.1051456,-0.210291 0.166864,-0.250296 0.4464865,-0.392135 0.5958248,-0.665922 0.1015907,-0.186249 0.2148448,-0.452457 0.2453396,-0.665922 0.027232,-0.190623 -0.054565,-0.572324 0,-0.736019 0.013322,-0.03996 0.048425,-0.06902 0.070097,-0.105145 0.052573,-0.08762 0.035049,-0.105146 0.1051457,-0.210291 0.1203396,-0.18051 0.2926117,-0.320052 0.4205821,-0.4906793 0.00288,-0.00384 0.056746,-0.1510427 0.1051457,-0.1752426 0.088092,-0.044046 0.5330393,-0.1526243 0.6659218,-0.1752426 L 8.6219354,9.2528084 c 0.4564505,-0.077694 0.9276662,0.3540267 1.2967951,0.6308733 0.2176105,0.1632083 0.3712875,0.4063363 0.5607755,0.5958243 0.297832,0.297832 0.693635,0.538187 0.911262,0.911262 0.128956,0.221068 0.20216,0.489077 0.350485,0.70097 0.0379,0.05414 0.09789,0.08942 0.140194,0.140194 0.0808,0.09696 -0.02261,0.05503 0.105146,0.140194 0.09076,0.06051 0.113207,0.02369 0.210291,0.140194 0.128871,0.154646 0.02557,0.0862 0.140194,0.315437 0.15305,0.306101 -0.01542,-0.325222 0.140194,0.24534 0.187961,0.689191 0.20949,1.476044 0.0701,2.173008 -0.0023,0.01146 0,0.02337 0,0.03505 0,0.04673 0.01014,0.09458 0,0.140194 -0.04835,0.217586 -0.07268,0.135954 -0.175243,0.315437 -0.07613,0.133226 -0.07645,0.312219 -0.140194,0.455631 -0.04442,0.09995 -0.09666,0.201808 -0.175242,0.280388 -0.01847,0.01847 -0.05561,0.01331 -0.0701,0.03505 -0.01296,0.01944 0.01045,0.0492 0,0.0701 -0.008,0.01605 -0.53591,-0.04748 -0.630874,0 -0.02956,0.01478 -0.0426,0.05177 -0.0701,0.0701 -0.06633,0.04422 -0.208277,-0.03606 -0.280388,0 -0.0418,0.0209 0.0209,0.0984 0,0.140194 -0.0052,0.01045 -0.0246,-0.0052 -0.03505,0 -0.06735,0.03368 -0.107893,0.106519 -0.175243,0.140194 -0.02804,0.01402 -0.07711,-0.01402 -0.105145,0 -0.03768,0.01884 -0.06747,0.05126 -0.105146,0.0701 -0.06609,0.03304 -0.141687,-0.04266 -0.210291,-0.0701 z"
       id="path46"
       sodipodi:nodetypes="cssscscccscccscssssssssscsssscsssssssssccscccscscsscscsccssccc" />
    <path
       style="fill:#6d6d6d;fill-opacity:1;stroke-width:0.264583"
       d="m 5.142596,16.584327 c 0.070097,-0.02337 -0.2934315,-0.175373 -0.2296079,-0.212603 0.078816,-0.04598 0.128905,-0.09257 0.2040953,-0.144264 0.1218618,-0.08378 0.6371855,-0.36621 0.736019,-0.45563 0.1255834,-0.113624 0.3568263,-0.398217 0.4556307,-0.595825 0.00523,-0.01045 -0.00826,-0.02679 0,-0.03505 0.00826,-0.0083 0.023966,0.0037 0.035048,0 0.1051457,-0.03505 0.2118646,-0.06569 0.3154368,-0.105145 0.3571663,-0.136064 0.8129497,-0.294276 1.1215526,-0.525728 0.081241,-0.06093 0.076285,-0.01355 0.1752425,-0.0701 0.085511,-0.04886 0.3555595,-0.290074 0.3855337,-0.315437 0.2290426,-0.193805 0.4683085,-0.374647 0.7009704,-0.560776 0.1353259,-0.108261 0.2105006,-0.257092 0.3855336,-0.315437 0.090819,-0.03027 0.2307997,0.04232 0.3154365,0 0.029556,-0.01478 0.040542,-0.05532 0.070097,-0.0701 0.1674567,-0.08373 0.7367098,0.14054 0.8762138,0.210291 0.172977,0.08649 0.272751,0.269381 0.420582,0.385534 0.112134,0.08811 0.229032,0.1706 0.350485,0.24534 0.13127,0.08078 0.07115,-0.008 0.175243,0.0701 0.205536,0.154152 0.318405,0.389986 0.45563,0.595825 0.01833,0.02749 0.0537,0.04141 0.0701,0.0701 0.06243,0.10925 0.07546,0.242589 0.140194,0.350486 0.03849,0.06415 0.10674,0.108333 0.140194,0.175242 0.106342,0.212684 0.04806,0.297404 0.105146,0.525728 0.01267,0.05069 0.05574,0.08996 0.0701,0.140194 0.01169,0.04093 0.01109,0.503553 0,0.525728 -0.01752,0.03505 -0.07886,0.0701 -0.105145,0.105145 -0.209297,0.279062 -0.294272,0.248117 -0.630874,0.315437 -0.09447,0.01889 -0.18536,0.05426 -0.280388,0.0701 -0.0461,0.0077 -0.09486,-0.01133 -0.140194,0 -0.05069,0.01267 -0.08951,0.05743 -0.140194,0.0701 -0.04534,0.01133 -0.09437,-0.0092 -0.140194,0 -0.07245,0.01449 -0.137837,0.05561 -0.210291,0.0701 -0.04582,0.0092 -0.09382,-0.0058 -0.140194,0 -0.0478,0.006 -0.09346,0.02336 -0.140194,0.03505 -0.0701,0.01168 -0.139662,0.0272 -0.210292,0.03505 -0.06967,0.0077 -0.143791,-0.02217 -0.210291,0 -0.03996,0.01332 -0.0657,0.05531 -0.105145,0.0701 -0.139658,0.05237 -0.3362676,0.04026 -0.4556312,0.0701 -0.050687,0.01267 -0.090628,0.05357 -0.1401942,0.0701 -0.070983,0.02366 -0.2027926,0 -0.280388,0 -0.221974,0 -0.444655,0.0177 -0.6659218,0 -0.1416754,-0.01133 -0.2802395,-0.04764 -0.4205822,-0.0701 -0.4658469,-0.07454 -0.9293797,-0.140194 -1.4019408,-0.140194"
       id="path48"
       sodipodi:nodetypes="ccssccccscsscscscscscssscccscsccccccscscsscc" />
  </g>
</svg>
