<?xml version="1.0" encoding="UTF-8" standalone="no"?>
<!-- Created with Inkscape (http://www.inkscape.org/) -->

<svg
   width="64"
   height="64"
   viewBox="0 0 16.933333 16.933333"
   version="1.1"
   id="svg1"
   inkscape:version="1.3 (0e150ed6c4, 2023-07-21)"
   sodipodi:docname="bush.svg"
   xmlns:inkscape="http://www.inkscape.org/namespaces/inkscape"
   xmlns:sodipodi="http://sodipodi.sourceforge.net/DTD/sodipodi-0.dtd"
   xmlns="http://www.w3.org/2000/svg"
   xmlns:svg="http://www.w3.org/2000/svg">
  <sodipodi:namedview
     id="namedview1"
     pagecolor="#2d2d2d"
     bordercolor="#000000"
     borderopacity="0.25"
     inkscape:showpageshadow="2"
     inkscape:pageopacity="0.0"
     inkscape:pagecheckerboard="0"
     inkscape:deskcolor="#3d3d3d"
     inkscape:document-units="mm"
     inkscape:zoom="3.7745296"
     inkscape:cx="17.220689"
     inkscape:cy="43.846523"
     inkscape:window-width="1680"
     inkscape:window-height="987"
     inkscape:window-x="-8"
     inkscape:window-y="-8"
     inkscape:window-maximized="1"
     inkscape:current-layer="layer1" />
  <defs
     id="defs1" />
  <g
     inkscape:label="Layer 1"
     inkscape:groupmode="layer"
     id="layer1"
     transform="translate(0.49067924,0.28038814)">
    <path
       style="display:inline;fill:#33651c;fill-opacity:1;stroke:none;stroke-width:7.99999"
       d="M 4.064419,14.968959 C 3.7348474,15.070768 3.3201334,15.132997 2.9739653,15.06809 2.3774356,14.956241 1.4110475,14.221238 1.1895861,13.630674 0.98576184,13.087143 1.0904539,11.983232 1.0904539,11.4002 c 0,-0.625937 -0.12082143,-1.4051012 0.1486983,-1.9826434 C 1.4698154,8.9232784 1.84518,8.5929858 2.2304739,8.2279706 2.5697215,7.906578 2.8820525,7.5575172 3.2217958,7.2366488 3.426348,7.0434604 3.6672033,6.8903733 3.8661549,6.691422 c 0.011684,-0.011684 -0.011684,-0.037883 0,-0.049566 0.035048,-0.035049 0.1016756,0.015674 0.1486982,0 C 4.1900956,6.5834415 4.3627365,6.5048584 4.510514,6.3940253 4.7535171,6.2117731 4.953903,5.9774322 5.154873,5.7496662 5.6047298,5.2398286 6.0356477,4.716378 6.4931575,4.2131175 6.7731295,3.9051481 6.6088124,3.9834608 6.9888184,3.7174566 7.246671,3.5369597 7.1078944,3.6827015 7.3357811,3.5687584 c 0.053282,-0.026641 0.090546,-0.086209 0.1486982,-0.099132 0.2419289,-0.053762 0.4958947,-0.010766 0.7434913,0 1.0929519,0.04752 1.198541,0.2518497 2.1313414,0.8426233 0.244168,0.1546394 0.500376,0.2898066 0.743492,0.4460949 0.219746,0.1412655 0.415714,0.3197384 0.644359,0.4460949 0.401009,0.2216102 0.821068,0.4073758 1.239152,0.5947928 0.208324,0.093387 0.228067,0.01992 0.346963,0.1982645 0.154295,0.2314437 0.529856,0.5549545 0.594793,0.7930573 0.07077,0.2594822 0.10675,0.5273897 0.148698,0.7930576 0.0259,0.1640123 0.02608,0.3312853 0.04957,0.4956609 0.02612,0.1828652 0.07173,0.3625487 0.09913,0.5452268 0.02219,0.1479582 0.04023,0.2967729 0.04957,0.446095 0.06299,1.0079196 0,2.0600156 0,3.0730966 0,0.462617 0,0.925234 0,1.387851 0,0.148698 0.04085,0.303118 0,0.446095 -0.108948,0.381318 -0.05306,0.0035 -0.148698,0.09913 -0.02612,0.02612 -0.01882,0.07864 -0.04957,0.09913 -0.02749,0.01833 -0.06958,-0.01478 -0.09913,0 -0.0418,0.0209 -0.05734,0.07823 -0.09913,0.09913 -0.05911,0.02956 -0.139154,-0.02956 -0.198265,0 -0.338458,0.16923 0.306589,0.09913 -0.396529,0.09913 -0.102796,0 -0.364453,-0.05443 -0.446094,0 -0.03888,0.02592 -0.05734,0.07823 -0.09913,0.09913 -0.02956,0.01478 -0.06625,-0.0033 -0.09913,0 -0.132543,0.01325 -0.26591,0.02344 -0.396528,0.04957 -0.481003,0.0962 -0.9536,0.266326 -1.437417,0.346962 -0.272527,0.04542 -0.567639,-0.03055 -0.8426233,0 -0.2159844,0.024 -0.4279384,0.07946 -0.6443591,0.09913 -0.2961754,0.02693 -0.5952043,-0.01563 -0.8921898,0 -2.0440523,0.107581 0.8049292,-0.0069 -0.8921896,0.09913 -0.214368,0.0134 -0.4295727,0 -0.6443591,0 -0.3980997,0 -0.915648,-0.06218 -1.2887181,0 -0.2453736,0.0409 -0.4976249,0.163141 -0.7434914,0.198265 -0.187298,0.02676 -0.4042809,0 -0.5947931,0 -0.033044,0 -0.075766,0.02337 -0.099132,0 -0.011681,-0.01168 0.00523,-0.03389 0,-0.04957 -0.028136,-0.08441 -0.066088,-0.16522 -0.099132,-0.24783 z"
       id="path2" />
    <path
       style="display:inline;fill:#39711f;stroke:none;stroke-width:7.99999;fill-opacity:1"
       d="M 4.0148531,16.059412 C 3.8991989,15.927236 3.7392213,15.823378 3.6678904,15.662884 3.6004534,15.51115 3.6429561,15.33143 3.6183244,15.167223 3.5933292,15.000595 3.531639,14.839594 3.5191922,14.671562 c -0.041959,-0.566451 0,-1.164038 0,-1.734813 0,-0.04411 0.1905271,-0.694176 0.2102911,-0.713941 0.106517,-0.106517 0.450747,-0.325195 0.6323324,-0.426079 C 4.7959486,11.555544 5.049634,10.966319 5.2540053,10.557577 5.6953485,9.6748903 5.7359483,9.4966807 6.0470626,8.3766688 6.2034213,7.8137776 5.9190029,8.1123323 6.294893,7.6827435 6.3492922,7.620573 6.3775034,7.5340452 6.4435915,7.4844793 6.5147705,7.4310948 6.6118411,7.4251375 6.691422,7.385347 6.8105638,7.3257761 6.9112431,7.2268143 7.0383844,7.1870826 7.2410137,7.1237612 8.8289952,7.0792837 9.1201601,7.1375166 c 0.1233845,0.024678 0.2313083,0.099132 0.3469627,0.1486982 0.1817423,0.033044 0.3620566,0.07524 0.5452272,0.099132 0.77834,0.1015228 1.523929,0.087565 2.131341,0.6443591 0.334623,0.3067378 0.532905,0.627107 0.793058,0.9913218 0.455353,0.6374945 0.235238,0.00856 0.842623,1.1895863 0.353552,0.687462 0.494058,1.52853 0.644359,2.28004 0.133525,0.667625 0.198265,1.304534 0.198265,1.982644 0,0.09611 0.04913,0.484245 0,0.594792 -0.262766,0.591223 -0.09135,0.138327 -0.396529,0.545228 -0.684074,1.094518 0.03652,0.06261 -0.396528,0.495661 -0.02436,0.02436 -0.04599,0.133515 -0.09913,0.148698 -0.480434,0.137267 -0.994168,0.09913 -1.486982,0.09913 -0.376472,0 -0.764363,0.02504 -1.14002,0 -1.078172,-0.07188 0.173907,-0.02024 -0.693926,-0.09913 -0.140552,-0.01278 -0.4095019,0.05429 -0.5452265,0 -0.3165663,-0.126627 0.016232,-0.09913 -0.2973967,-0.09913 H 5.9974996 c -0.6476137,0 -1.3632651,0.107328 -1.9826435,-0.09913 z"
       id="path1"
       sodipodi:nodetypes="sssssccssssssscssssssccssscsssscs" />
  </g>
</svg>
