<?xml version="1.0" encoding="UTF-8" standalone="no"?>
<!-- Created with Inkscape (http://www.inkscape.org/) -->

<svg
   width="48"
   height="48"
   viewBox="0 0 12.7 12.7"
   version="1.1"
   id="svg1"
   inkscape:version="1.3 (0e150ed6c4, 2023-07-21)"
   sodipodi:docname="campfire.svg"
   xmlns:inkscape="http://www.inkscape.org/namespaces/inkscape"
   xmlns:sodipodi="http://sodipodi.sourceforge.net/DTD/sodipodi-0.dtd"
   xmlns="http://www.w3.org/2000/svg"
   xmlns:svg="http://www.w3.org/2000/svg">
  <sodipodi:namedview
     id="namedview1"
     pagecolor="#2d2d2d"
     bordercolor="#000000"
     borderopacity="0.25"
     inkscape:showpageshadow="2"
     inkscape:pageopacity="0.0"
     inkscape:pagecheckerboard="0"
     inkscape:deskcolor="#3d3d3d"
     inkscape:document-units="mm"
     inkscape:zoom="5.337991"
     inkscape:cx="2.4353732"
     inkscape:cy="51.423841"
     inkscape:window-width="1680"
     inkscape:window-height="987"
     inkscape:window-x="-8"
     inkscape:window-y="-8"
     inkscape:window-maximized="1"
     inkscape:current-layer="layer1" />
  <defs
     id="defs1">
    <inkscape:path-effect
       effect="fillet_chamfer"
       id="path-effect5"
       is_visible="true"
       lpeversion="1"
       nodesatellites_param="F,0,0,1,0,0.24743319,0,1 @ F,0,0,1,0,0,0,1 @ F,0,0,1,0,0,0,1 @ F,0,1,1,0,0.24743319,0,1"
       radius="0"
       unit="px"
       method="auto"
       mode="F"
       chamfer_steps="1"
       flexible="false"
       use_knot_distance="true"
       apply_no_radius="true"
       apply_with_radius="true"
       only_selected="false"
       hide_knots="false" />
    <inkscape:path-effect
       effect="fillet_chamfer"
       id="path-effect4"
       is_visible="true"
       lpeversion="1"
       nodesatellites_param="F,0,0,1,0,0,0,1 @ F,0,0,1,0,0.12257205,0,1 @ F,0,1,1,0,0.12257205,0,1 @ F,0,0,1,0,0,0,1"
       radius="0"
       unit="px"
       method="auto"
       mode="F"
       chamfer_steps="1"
       flexible="false"
       use_knot_distance="true"
       apply_no_radius="true"
       apply_with_radius="true"
       only_selected="false"
       hide_knots="false" />
    <inkscape:path-effect
       effect="fillet_chamfer"
       id="path-effect3"
       is_visible="true"
       lpeversion="1"
       nodesatellites_param="F,0,0,1,0,0,0,1 @ F,0,0,1,0,0.14819992,0,1 @ F,0,1,1,0,0.14819992,0,1 @ F,0,0,1,0,0,0,1"
       radius="0"
       unit="px"
       method="auto"
       mode="F"
       chamfer_steps="1"
       flexible="false"
       use_knot_distance="true"
       apply_no_radius="true"
       apply_with_radius="true"
       only_selected="false"
       hide_knots="false" />
    <inkscape:path-effect
       effect="fillet_chamfer"
       id="path-effect2"
       is_visible="true"
       lpeversion="1"
       nodesatellites_param="F,0,0,1,0,0.2030091,0,1 @ F,0,0,1,0,0.25088788,0,1 @ F,0,1,1,0,0.25088788,0,1 @ F,0,0,1,0,0.2030091,0,1"
       radius="0"
       unit="px"
       method="auto"
       mode="F"
       chamfer_steps="1"
       flexible="false"
       use_knot_distance="true"
       apply_no_radius="true"
       apply_with_radius="true"
       only_selected="false"
       hide_knots="false" />
  </defs>
  <g
     inkscape:label="Layer 1"
     inkscape:groupmode="layer"
     id="layer1"
     transform="matrix(1.0664528,0,0,1.0664528,-0.31894827,-1.3347134)">
    <ellipse
       style="fill:#1a1a1a;fill-opacity:1;stroke-width:0.0468843"
       id="path2"
       cx="6.3411522"
       cy="10.942109"
       rx="2.1147273"
       ry="0.92955053" />
    <path
       id="rect1"
       style="fill:#462c1a;stroke-width:0.0495099"
       transform="rotate(-21.826239)"
       d="M -1.6129562,10.342071 H 2.963189 v 1.585833 h -4.5761452 c -0.1366536,0 -0.2553741,-0.113189 -0.3068586,-0.2392 -0.1038892,-0.254272 -0.2774483,-0.421037 -0.029951,-1.11666 0.045677,-0.128382 0.2001562,-0.229973 0.3368098,-0.229973 z"
       sodipodi:nodetypes="ccccc"
       inkscape:path-effect="#path-effect5"
       inkscape:original-d="M -1.8603894,10.342071 H 2.963189 l 0,1.585833 h -4.8235784 c -0.040841,-0.477314 -0.4650271,-0.473136 0,-1.585833 z" />
    <path
       id="rect1-5"
       style="fill:#4e311d;stroke-width:0.0495099"
       transform="rotate(28.011645)"
       d="m 9.4113459,3.8464279 h 4.3696811 c 0.138562,0 0.308594,0.097464 0.356116,0.2274709 0.166929,0.4566732 9.87e-4,0.764353 -0.07356,1.1129384 -0.02858,0.1336454 -0.14399,0.2454246 -0.282552,0.2454246 l -4.3696811,0 c -0.1121188,0 -0.2428916,-0.081703 -0.288604,-0.1840773 C 8.9662476,4.8977113 8.8590786,4.5284156 9.1096716,4.0225997 9.1591772,3.9226737 9.2992271,3.8464279 9.4113459,3.8464279 Z"
       sodipodi:nodetypes="ccccc"
       inkscape:path-effect="#path-effect2"
       inkscape:original-d="m 9.2083368,3.8464279 4.8235782,0 c 0.390605,0.7034467 0.01573,1.064265 0,1.5858339 l -4.8235782,0 c -0.2117346,-0.4478143 -0.4317719,-0.8924604 0,-1.5858339 z" />
    <path
       id="rect1-1"
       style="fill:#593821;stroke-width:0.0353742"
       transform="rotate(-50.241874)"
       d="m -6.126895,10.383434 h 3.29818 c 0.081848,0 0.202529,0.04013 0.2529328,0.104382 0.1952074,0.248846 0.099866,0.565803 -0.043931,0.89412 -0.032716,0.0747 -0.1271534,0.134555 -0.2090019,0.134555 h -3.29818 z"
       sodipodi:nodetypes="ccccc"
       inkscape:path-effect="#path-effect3"
       inkscape:original-d="m -6.126895,10.383434 h 3.4463799 c 0.3655368,0.291996 0.1955088,0.70954 0,1.133057 H -6.126895 Z" />
    <path
       id="rect1-2"
       style="fill:#462c1a;stroke-width:0.0291151"
       transform="rotate(-127.02247)"
       d="m -14.200524,-0.85525137 h 2.714012 c 0.06769,0 0.158831,0.0413923 0.197852,0.0966839 0.136515,0.19343588 0.198097,0.41489705 -0.0052,0.73542486 -0.03624,0.05713051 -0.12496,0.10046667 -0.192655,0.10046667 l -2.714012,0 z"
       sodipodi:nodetypes="ccccc"
       inkscape:path-effect="#path-effect4"
       inkscape:original-d="m -14.200524,-0.85525137 h 2.836584 c 0.199004,0.23642886 0.329138,0.4986158 0,0.93257546 l -2.836584,0 z" />
    <path
       id="path1"
       style="fill:#424242;stroke-width:0.0550667"
       transform="rotate(25.882673)"
       d="m 8.3825771,9.5339193 c -2e-7,0.4673037 -0.4643656,0.8461277 -1.0371892,0.8461277 -0.5728236,0 -0.8202431,-0.08227 -0.8202433,-0.5495733 0,-0.4673036 0.2474196,-1.1426824 0.8202433,-1.1426824 0.5728238,0 1.0371892,0.3788244 1.0371892,0.846128 z"
       sodipodi:nodetypes="sssss" />
    <path
       id="path1-3"
       style="fill:#3a3a3a;stroke-width:0.0697933"
       transform="matrix(0.99967034,0.02567495,-0.01609418,0.99987048,0,0)"
       d="m 5.6379546,11.910709 c -0.00682,0.665629 -0.6949023,0.782275 -1.3409397,0.782275 -0.6460374,0 -1.1994423,-0.3416 -1.1994422,-1.007199 -1e-7,-0.665599 0.7286549,-1.046714 1.3706277,-0.98025 0.6471161,0.067 1.1739222,0.798457 1.1697542,1.205174 z"
       sodipodi:nodetypes="sssss" />
    <ellipse
       style="fill:#424242;fill-opacity:1;stroke-width:0.0621576"
       id="path1-2"
       cx="5.5176167"
       cy="12.546088"
       rx="1.1707479"
       ry="0.95508385"
       transform="rotate(-5.1679252)" />
    <path
       id="path1-4"
       style="fill:#424242;stroke-width:0.0550667"
       transform="rotate(-36.279566)"
       d="m 2.3467267,15.283546 c 0,0.467304 -0.2752509,0.699568 -0.8480746,0.699568 -0.57282374,0 -1.03718914,-0.378824 -1.03718913,-0.846128 -10e-9,-0.467304 0.46436539,-0.846128 1.03718913,-0.846128 0.5728237,0 0.8480746,0.525385 0.8480746,0.992688 z"
       sodipodi:nodetypes="sssss" />
    <path
       id="path1-9"
       style="fill:#4b4b4b;stroke-width:0.0715407"
       transform="rotate(25.882673)"
       d="m 14.346347,6.713726 c 0,0.6071045 -0.627809,0.9097958 -1.34748,1.0992599 -0.818922,0.2155934 -1.099067,-0.4282992 -1.098341,-1.0374985 7.24e-4,-0.6071041 0.354148,-1.1610213 1.098341,-1.1610212 0.744193,-1e-7 1.34748,0.4921553 1.34748,1.0992598 z"
       sodipodi:nodetypes="sssss" />
  </g>
</svg>
