<?xml version="1.0" encoding="UTF-8" standalone="no"?>
<!-- Created with Inkscape (http://www.inkscape.org/) -->

<svg
   width="80"
   height="80"
   viewBox="0 0 21.166666 21.166667"
   version="1.1"
   id="svg1"
   inkscape:version="1.3 (0e150ed6c4, 2023-07-21)"
   sodipodi:docname="cave_warp.svg"
   xmlns:inkscape="http://www.inkscape.org/namespaces/inkscape"
   xmlns:sodipodi="http://sodipodi.sourceforge.net/DTD/sodipodi-0.dtd"
   xmlns="http://www.w3.org/2000/svg"
   xmlns:svg="http://www.w3.org/2000/svg">
  <sodipodi:namedview
     id="namedview1"
     pagecolor="#2d2d2d"
     bordercolor="#000000"
     borderopacity="0.25"
     inkscape:showpageshadow="2"
     inkscape:pageopacity="0.0"
     inkscape:pagecheckerboard="0"
     inkscape:deskcolor="#3d3d3d"
     inkscape:document-units="mm"
     inkscape:zoom="5.337991"
     inkscape:cx="24.353732"
     inkscape:cy="52.547859"
     inkscape:window-width="1680"
     inkscape:window-height="987"
     inkscape:window-x="-8"
     inkscape:window-y="-8"
     inkscape:window-maximized="1"
     inkscape:current-layer="layer1" />
  <defs
     id="defs1">
    <inkscape:path-effect
       effect="fillet_chamfer"
       id="path-effect6"
       is_visible="true"
       lpeversion="1"
       nodesatellites_param="F,0,0,1,0,0,0,1 @ F,0,0,1,0,0,0,1 @ F,0,0,1,0,0,0,1 @ F,0,0,1,0,0,0,1 @ F,0,0,1,0,0,0,1 @ F,0,0,1,0,0,0,1 @ F,0,0,1,0,0,0,1 @ F,0,0,1,0,0,0,1 @ F,0,0,1,0,0,0,1 @ F,0,0,1,0,0,0,1 @ F,0,0,1,0,0,0,1 @ F,0,0,1,0,0,0,1 @ F,0,0,1,0,0,0,1 @ F,0,0,1,0,0,0,1 @ F,0,0,1,0,0,0,1 @ F,0,0,1,0,0,0,1 @ F,0,0,1,0,0,0,1 @ F,0,0,1,0,0,0,1 @ F,0,0,1,0,0,0,1 @ F,0,0,1,0,0,0,1 @ F,0,0,1,0,0,0,1 @ F,0,0,1,0,0,0,1 @ F,0,0,1,0,0,0,1 @ F,0,0,1,0,0,0,1 @ F,0,0,1,0,0,0,1 @ F,0,0,1,0,0,0,1 @ F,0,0,1,0,0,0,1 @ F,0,0,1,0,0,0,1 @ F,0,0,1,0,0,0,1 @ F,0,0,1,0,0,0,1 @ F,0,0,1,0,0,0,1"
       radius="0"
       unit="px"
       method="auto"
       mode="F"
       chamfer_steps="1"
       flexible="false"
       use_knot_distance="true"
       apply_no_radius="true"
       apply_with_radius="true"
       only_selected="false"
       hide_knots="false" />
    <inkscape:path-effect
       effect="fillet_chamfer"
       id="path-effect5"
       is_visible="true"
       lpeversion="1"
       nodesatellites_param="F,0,0,1,0,0,0,1 @ F,0,0,1,0,0,0,1 @ F,0,0,1,0,0,0,1 @ F,0,0,1,0,0,0,1 @ F,0,0,1,0,0,0,1 @ F,0,0,1,0,0,0,1 @ F,0,0,1,0,0,0,1 @ F,0,0,1,0,0,0,1 @ F,0,0,1,0,0,0,1 @ F,0,0,1,0,0,0,1 @ F,0,0,1,0,0,0,1 @ F,0,0,1,0,0,0,1 @ F,0,0,1,0,0,0,1 @ F,0,0,1,0,0,0,1 @ F,0,0,1,0,0,0,1 @ F,0,0,1,0,0,0,1 @ F,0,0,1,0,0,0,1 @ F,0,0,1,0,0,0,1 @ F,0,0,1,0,0,0,1 @ F,0,0,1,0,0,0,1 @ F,0,0,1,0,0,0,1 @ F,0,0,1,0,0,0,1 @ F,0,0,1,0,0,0,1 @ F,0,0,1,0,0,0,1 @ F,0,0,1,0,0,0,1 @ F,0,0,1,0,0,0,1 @ F,0,0,1,0,0,0,1 @ F,0,0,1,0,0,0,1 @ F,0,0,1,0,0,0,1 @ F,0,0,1,0,0,0,1 @ F,0,0,1,0,0,0,1"
       radius="0"
       unit="px"
       method="auto"
       mode="F"
       chamfer_steps="1"
       flexible="false"
       use_knot_distance="true"
       apply_no_radius="true"
       apply_with_radius="true"
       only_selected="false"
       hide_knots="false" />
    <inkscape:path-effect
       effect="fillet_chamfer"
       id="path-effect4"
       is_visible="true"
       lpeversion="1"
       nodesatellites_param="F,0,0,1,0,0,0,1 @ F,0,0,1,0,0,0,1 @ F,0,0,1,0,0,0,1 @ F,0,0,1,0,0,0,1 @ F,0,0,1,0,0,0,1 @ F,0,0,1,0,0,0,1 @ F,0,0,1,0,0,0,1 @ F,0,0,1,0,0,0,1 @ F,0,0,1,0,0,0,1 @ F,0,0,1,0,0,0,1 @ F,0,0,1,0,0,0,1 @ F,0,0,1,0,0,0,1 @ F,0,0,1,0,0,0,1 @ F,0,0,1,0,0,0,1 @ F,0,0,1,0,0,0,1 @ F,0,0,1,0,0,0,1 @ F,0,0,1,0,0,0,1 @ F,0,0,1,0,0,0,1 @ F,0,0,1,0,0,0,1 @ F,0,0,1,0,0,0,1 @ F,0,0,1,0,0,0,1 @ F,0,0,1,0,0,0,1 @ F,0,0,1,0,0,0,1 @ F,0,0,1,0,0,0,1 @ F,0,0,1,0,0,0,1 @ F,0,0,1,0,0,0,1 @ F,0,0,1,0,0,0,1 @ F,0,0,1,0,0,0,1 @ F,0,0,1,0,0,0,1 @ F,0,0,1,0,0,0,1 @ F,0,0,1,0,0,0,1"
       radius="0"
       unit="px"
       method="auto"
       mode="F"
       chamfer_steps="1"
       flexible="false"
       use_knot_distance="true"
       apply_no_radius="true"
       apply_with_radius="true"
       only_selected="false"
       hide_knots="false" />
    <inkscape:path-effect
       effect="fillet_chamfer"
       id="path-effect3"
       is_visible="true"
       lpeversion="1"
       nodesatellites_param="F,0,0,1,0,0,0,1 @ F,0,0,1,0,0,0,1 @ F,0,0,1,0,0,0,1 @ F,0,0,1,0,0,0,1 @ F,0,0,1,0,0,0,1 @ F,0,0,1,0,0,0,1 @ F,0,0,1,0,0,0,1 @ F,0,0,1,0,0,0,1 @ F,0,0,1,0,0,0,1 @ F,0,0,1,0,0,0,1 @ F,0,0,1,0,0,0,1 @ F,0,0,1,0,0,0,1 @ F,0,0,1,0,0,0,1 @ F,0,0,1,0,0,0,1 @ F,0,0,1,0,0,0,1 @ F,0,0,1,0,0,0,1 @ F,0,0,1,0,0,0,1 @ F,0,0,1,0,0,0,1 @ F,0,0,1,0,0,0,1 @ F,0,0,1,0,0,0,1 @ F,0,0,1,0,0,0,1 @ F,0,0,1,0,0,0,1 @ F,0,0,1,0,0,0,1 @ F,0,0,1,0,0,0,1 @ F,0,0,1,0,0,0,1 @ F,0,0,1,0,0,0,1 @ F,0,0,1,0,0,0,1 @ F,0,0,1,0,0,0,1 @ F,0,0,1,0,0,0,1 @ F,0,0,1,0,0,0,1 @ F,0,0,1,0,0,0,1"
       radius="0"
       unit="px"
       method="auto"
       mode="F"
       chamfer_steps="1"
       flexible="false"
       use_knot_distance="true"
       apply_no_radius="true"
       apply_with_radius="true"
       only_selected="false"
       hide_knots="false" />
    <inkscape:path-effect
       effect="fillet_chamfer"
       id="path-effect2"
       is_visible="true"
       lpeversion="1"
       nodesatellites_param="F,0,0,1,0,0,0,1 @ F,0,0,1,0,0,0,1 @ F,0,0,1,0,0,0,1 @ F,0,0,1,0,0,0,1 @ F,0,0,1,0,0,0,1 @ F,0,0,1,0,0,0,1 @ F,0,0,1,0,0,0,1 @ F,0,0,1,0,0,0,1 @ F,0,0,1,0,0,0,1 @ F,0,0,1,0,0,0,1 @ F,0,0,1,0,0,0,1 @ F,0,0,1,0,0,0,1 @ F,0,0,1,0,0,0,1 @ F,0,0,1,0,0,0,1 @ F,0,0,1,0,0,0,1 @ F,0,0,1,0,0,0,1 @ F,0,0,1,0,0,0,1 @ F,0,0,1,0,0,0,1 @ F,0,0,1,0,0,0,1 @ F,0,0,1,0,0,0,1 @ F,0,0,1,0,0,0,1 @ F,0,0,1,0,0,0,1 @ F,0,0,1,0,0,0,1 @ F,0,0,1,0,0,0,1 @ F,0,0,1,0,0,0,1 @ F,0,0,1,0,0,0,1 @ F,0,0,1,0,0,0,1 @ F,0,0,1,0,0,0,1 @ F,0,0,1,0,0,0,1 @ F,0,0,1,0,0,0,1 @ F,0,0,1,0,0,0,1"
       radius="0"
       unit="px"
       method="auto"
       mode="F"
       chamfer_steps="1"
       flexible="false"
       use_knot_distance="true"
       apply_no_radius="true"
       apply_with_radius="true"
       only_selected="false"
       hide_knots="false" />
  </defs>
  <g
     inkscape:label="Layer 1"
     inkscape:groupmode="layer"
     id="layer1"
     transform="translate(0,-1.2391522)">
    <path
       style="fill:#4d4d4d;stroke-width:0.0518028"
       d="M 4.3127049,21.313419 C 3.800215,21.614262 3.199814,21.773528 2.5760557,21.763063 1.9522974,21.752598 1.2651831,21.304388 0.99665876,20.896923 0.61051305,20.310976 0.81954095,19.534802 0.85022796,19.151214 c 0.0177458,-0.221822 -0.0158548,-0.445628 0,-0.667594 C 0.90812356,17.673081 1.1462724,16.910511 1.3124084,16.121364 1.3912614,15.74681 1.4389682,15.366146 1.5178219,14.99159 1.6266128,14.474834 1.8449784,13.745165 1.9800024,13.245576 2.5355167,11.190172 1.9217314,13.328276 2.5448895,11.3455 2.759673,10.662098 2.8152291,10.303051 3.1097768,9.6508382 3.4772664,8.8371108 3.5405323,8.9433873 3.9314308,8.1615901 4.048033,7.9283858 4.1195324,7.6741076 4.2395512,7.4426429 4.8199316,6.3233378 5.8864783,5.0976092 7.0126338,4.4641467 8.0636788,3.8729339 9.4881874,3.9259417 10.658724,3.8479061 c 0.676776,-0.045118 2.471716,-0.1830649 3.081203,0.051353 0.191723,0.073739 0.339075,0.3390758 0.46218,0.4621805 0.128669,0.1286686 0.282159,0.2308052 0.410827,0.3594738 0.254502,0.2545015 1.027582,1.0761267 1.283834,1.4378946 0.137458,0.1940572 0.229567,0.4170501 0.359475,0.6162406 0.127185,0.1950183 0.289769,0.3660065 0.410826,0.5648872 0.119411,0.1961745 0.202789,0.4121605 0.308121,0.6162406 0.273884,0.5306515 0.544566,1.0629688 0.821653,1.5919549 0.195861,0.3739154 0.321776,0.5265477 0.462181,0.9243617 0.04697,0.13311 0.05573,0.277717 0.102704,0.410827 0.309358,0.876515 0.115507,0.04608 0.359474,0.924361 0.24074,0.866667 5.76e-4,0.05632 0.102704,0.924361 0.03299,0.28038 0.150047,0.544822 0.205414,0.821654 0.04555,0.22772 0.06522,0.54536 0.102705,0.7703 0.09428,0.565687 0.239677,1.124313 0.308119,1.694662 0.0266,0.221599 0.01071,0.448137 0.05136,0.667594 0.138935,0.750252 0.547337,1.413196 0.718948,2.156842 0.106022,0.459432 -0.02474,0.929972 0.05136,1.386541 0.03375,0.202536 -0.248569,0.874409 -0.415417,1.028319 -0.07034,0.06489 -0.392005,0.414753 -1.471238,0.521333 -1.079233,0.10658 -2.216607,-0.476544 -2.216607,-0.370312"
       id="path4"
       sodipodi:nodetypes="csssssssssssssssssssssccssccccscssc" />
    <path
       style="fill:#000000;stroke-width:0.0417927"
       d="m 7.9978468,20.821492 c -1.536535,0.136739 -3.7271747,0.686187 -3.7401834,0.477172 -0.013009,-0.209015 -0.077099,-0.926021 -0.0481,-1.129018 0.022268,-0.155876 0.090841,-0.301866 0.1242903,-0.455731 0.071379,-0.328343 0.1146272,-0.662217 0.1657203,-0.994322 0.08395,-0.545678 0.1144693,-1.120759 0.2485808,-1.657205 0.042367,-0.169469 0.123353,-0.327692 0.1657203,-0.497161 0.040748,-0.162991 0.045627,-0.333333 0.08286,-0.497162 0.066844,-0.294115 0.1485993,-0.585469 0.2485806,-0.870032 0.1768253,-0.503271 0.3633743,-1.004027 0.5800216,-1.491484 0.09535,-0.214536 0.2389602,-0.405663 0.3314408,-0.621451 0.039605,-0.09241 0.040729,-0.198726 0.08286,-0.290011 0.041732,-0.09042 0.1168975,-0.161784 0.1657205,-0.248581 0.075697,-0.134571 0.1277117,-0.281903 0.2071506,-0.414301 0.2835024,-0.472503 0.7069276,-0.882678 1.1186131,-1.242903 0.1210141,-0.105887 0.3348132,-0.356079 0.5385913,-0.414301 0.7032295,-0.200923 1.4737989,-0.165721 2.1957962,-0.165721 0.344235,0 0.972074,-0.01562 1.325764,0.04143 0.46347,0.07475 0.930095,0.255357 1.367193,0.414302 0.06989,0.02542 0.149078,0.0364 0.207151,0.08286 0.306979,0.245583 0.845043,0.853264 1.077182,1.201473 0.186327,0.279489 0.306682,0.654795 0.455732,0.952893 0.540211,1.080422 -0.170836,-0.352456 0.455731,0.952892 0.08847,0.184323 0.335515,0.646806 0.414301,0.870033 0.165095,0.467768 0.152997,1.004103 0.207151,1.491483 0.0261,0.234944 0.04822,0.470474 0.08286,0.704312 0.02064,0.139314 0.06885,0.274165 0.08286,0.414301 0.03607,0.360703 0,0.75553 0,1.118613 l 0.04957,2.841972 c -1.249197,-0.215443 -1.677672,-0.360258 -3.797819,-0.573471"
       id="path2"
       sodipodi:nodetypes="csssssssssssssssscccsscscscscc" />
  </g>
</svg>
