<?xml version="1.0" encoding="UTF-8" standalone="no"?>
<!-- Created with Inkscape (http://www.inkscape.org/) -->

<svg
   width="64"
   height="64"
   viewBox="0 0 16.933333 16.933333"
   version="1.1"
   id="svg1"
   inkscape:version="1.3 (0e150ed6c4, 2023-07-21)"
   sodipodi:docname="iron_ore.svg"
   xmlns:inkscape="http://www.inkscape.org/namespaces/inkscape"
   xmlns:sodipodi="http://sodipodi.sourceforge.net/DTD/sodipodi-0.dtd"
   xmlns="http://www.w3.org/2000/svg"
   xmlns:svg="http://www.w3.org/2000/svg">
  <sodipodi:namedview
     id="namedview1"
     pagecolor="#2d2d2d"
     bordercolor="#000000"
     borderopacity="0.25"
     inkscape:showpageshadow="2"
     inkscape:pageopacity="0.0"
     inkscape:pagecheckerboard="0"
     inkscape:deskcolor="#3d3d3d"
     inkscape:document-units="mm"
     inkscape:zoom="7.5490593"
     inkscape:cx="29.937505"
     inkscape:cy="34.905011"
     inkscape:window-width="1680"
     inkscape:window-height="987"
     inkscape:window-x="-8"
     inkscape:window-y="-8"
     inkscape:window-maximized="1"
     inkscape:current-layer="layer1" />
  <defs
     id="defs1">
    <clipPath
       clipPathUnits="userSpaceOnUse"
       id="clipPath7">
      <path
         style="fill:#4d4d4d;stroke-width:0.0499999"
         d="m 0.7710674,14.860571 c 0.038109,-0.30998 -0.1144574,-0.600739 -0.070097,-0.911261 0.03966,-0.277616 0.2259342,-0.533846 0.28038809,-0.806116 0.0114559,-0.05728 -0.0104489,-0.117771 0,-0.175243 0.040043,-0.220235 0.095217,-0.212515 0.17524261,-0.420582 0.063435,-0.16493 0.066623,-0.296227 0.1401941,-0.455631 C 1.3992949,11.869656 1.5811511,11.715132 1.6823289,11.495914 1.8198805,11.197885 1.9292376,10.895382 2.032814,10.584652 2.1570976,10.211802 2.1382242,10.373303 2.2431051,9.9537787 2.3261981,9.6214078 2.3860017,9.3002386 2.4884449,8.9724206 2.5138129,8.8912406 2.5228999,8.8043046 2.5585419,8.7270807 2.5938459,8.6505907 2.658795,8.5909658 2.6987362,8.5167896 2.7507242,8.4202397 2.8193503,8.1858837 2.9090273,8.0962077 3.0900674,7.9151668 3.344101,7.8314508 3.5399004,7.6055278 3.8200473,7.2822811 4.0305027,6.882098 4.3460162,6.5891209 4.4316269,6.509625 4.5363339,6.4532359 4.6264044,6.3788298 4.8051884,6.2311386 4.9591812,6.0518331 5.152132,5.9231993 5.3477573,5.7927825 5.5752156,5.7177691 5.7830053,5.6077628 6.1019169,5.4389269 6.3962259,5.2208221 6.7293151,5.0820349 7.3564292,4.8207372 7.9325102,4.8366953 8.5868865,4.8366953 c 0.2634167,0 0.6497584,-0.011647 0.9112615,0.035049 0.075045,0.013401 1.147097,0.3119067 1.156601,0.315437 0.558433,0.207418 1.069567,0.5253321 1.612232,0.7710673 0.542692,0.2457471 1.037189,0.433052 1.542134,0.7360187 0.08077,0.04846 0.172981,0.079895 0.24534,0.140194 0.311312,0.2594266 0.599698,0.8298706 0.771067,1.1916487 0.208361,0.439874 0.48791,0.8250168 0.630874,1.2967959 0.06516,0.2150221 0.192358,0.9093551 0.245339,1.1566011 0.110765,0.516905 0.255104,1.046214 0.280388,1.577183 0.01112,0.233392 -0.02898,0.469118 0,0.70097 0.01195,0.09559 0.05736,0.184894 0.0701,0.280388 0.01081,0.08106 -0.01244,0.164511 0,0.245341 0.01123,0.07303 0.05965,0.137144 0.0701,0.210291 0.03528,0.246921 0,0.52128 0,0.771066 0,0.226418 0.03502,0.49074 -0.0701,0.700971 -0.167908,0.335816 -0.524833,0.618892 -0.876213,0.736019 -0.123211,0.04107 -0.392668,0.05462 -0.490679,0.0701 -0.117684,0.01858 -0.232072,0.05694 -0.350485,0.0701 -0.09289,0.01032 -0.187647,-0.01159 -0.280388,0 -0.0956,0.01195 -0.184894,0.05736 -0.280388,0.0701 -0.138964,0.01853 -0.280388,0 -0.420582,0 -0.384201,0 -0.772958,-0.01744 -1.156602,0 -0.566581,0.02575 -1.11734,0.174979 -1.682328,0.210291 -1.3812794,0 0.203464,-0.02643 -1.0514554,0.0701 -0.4412583,0.03394 -0.890701,-0.03529 -1.3318437,0 -0.3814546,0.03052 -0.6862884,0.0738 -1.0514555,0.140194 -0.1147046,0.02086 -0.3170365,0 -0.4205822,0 -0.2920709,0 -0.5841421,0 -0.876213,0 -0.2570223,0 -0.516628,0.03635 -0.7710672,0 -0.073146,-0.01045 -0.1378374,-0.05561 -0.2102911,-0.0701 -0.2251975,-0.04504 -0.6697872,0 -0.9112615,0 -0.046731,0 -0.095261,0.01284 -0.140194,0 -0.040502,-0.01157 -0.066035,-0.05445 -0.1051457,-0.0701 -0.087443,-0.03498 -0.2248765,0.02264 -0.3154365,0 -0.2246326,-0.05616 -0.080551,-0.0701 -0.3154368,-0.0701"
         id="path8"
         inkscape:label="path1" />
    </clipPath>
    <clipPath
       clipPathUnits="userSpaceOnUse"
       id="clipPath8">
      <path
         style="fill:#4d4d4d;stroke-width:0.0499999"
         d="m 0.7710674,14.860571 c 0.038109,-0.30998 -0.1144574,-0.600739 -0.070097,-0.911261 0.03966,-0.277616 0.2259342,-0.533846 0.28038809,-0.806116 0.0114559,-0.05728 -0.0104489,-0.117771 0,-0.175243 0.040043,-0.220235 0.095217,-0.212515 0.17524261,-0.420582 0.063435,-0.16493 0.066623,-0.296227 0.1401941,-0.455631 C 1.3992949,11.869656 1.5811511,11.715132 1.6823289,11.495914 1.8198805,11.197885 1.9292376,10.895382 2.032814,10.584652 2.1570976,10.211802 2.1382242,10.373303 2.2431051,9.9537787 2.3261981,9.6214078 2.3860017,9.3002386 2.4884449,8.9724206 2.5138129,8.8912406 2.5228999,8.8043046 2.5585419,8.7270807 2.5938459,8.6505907 2.658795,8.5909658 2.6987362,8.5167896 2.7507242,8.4202397 2.8193503,8.1858837 2.9090273,8.0962077 3.0900674,7.9151668 3.344101,7.8314508 3.5399004,7.6055278 3.8200473,7.2822811 4.0305027,6.882098 4.3460162,6.5891209 4.4316269,6.509625 4.5363339,6.4532359 4.6264044,6.3788298 4.8051884,6.2311386 4.9591812,6.0518331 5.152132,5.9231993 5.3477573,5.7927825 5.5752156,5.7177691 5.7830053,5.6077628 6.1019169,5.4389269 6.3962259,5.2208221 6.7293151,5.0820349 7.3564292,4.8207372 7.9325102,4.8366953 8.5868865,4.8366953 c 0.2634167,0 0.6497584,-0.011647 0.9112615,0.035049 0.075045,0.013401 1.147097,0.3119067 1.156601,0.315437 0.558433,0.207418 1.069567,0.5253321 1.612232,0.7710673 0.542692,0.2457471 1.037189,0.433052 1.542134,0.7360187 0.08077,0.04846 0.172981,0.079895 0.24534,0.140194 0.311312,0.2594266 0.599698,0.8298706 0.771067,1.1916487 0.208361,0.439874 0.48791,0.8250168 0.630874,1.2967959 0.06516,0.2150221 0.192358,0.9093551 0.245339,1.1566011 0.110765,0.516905 0.255104,1.046214 0.280388,1.577183 0.01112,0.233392 -0.02898,0.469118 0,0.70097 0.01195,0.09559 0.05736,0.184894 0.0701,0.280388 0.01081,0.08106 -0.01244,0.164511 0,0.245341 0.01123,0.07303 0.05965,0.137144 0.0701,0.210291 0.03528,0.246921 0,0.52128 0,0.771066 0,0.226418 0.03502,0.49074 -0.0701,0.700971 -0.167908,0.335816 -0.524833,0.618892 -0.876213,0.736019 -0.123211,0.04107 -0.392668,0.05462 -0.490679,0.0701 -0.117684,0.01858 -0.232072,0.05694 -0.350485,0.0701 -0.09289,0.01032 -0.187647,-0.01159 -0.280388,0 -0.0956,0.01195 -0.184894,0.05736 -0.280388,0.0701 -0.138964,0.01853 -0.280388,0 -0.420582,0 -0.384201,0 -0.772958,-0.01744 -1.156602,0 -0.566581,0.02575 -1.11734,0.174979 -1.682328,0.210291 -1.3812794,0 0.203464,-0.02643 -1.0514554,0.0701 -0.4412583,0.03394 -0.890701,-0.03529 -1.3318437,0 -0.3814546,0.03052 -0.6862884,0.0738 -1.0514555,0.140194 -0.1147046,0.02086 -0.3170365,0 -0.4205822,0 -0.2920709,0 -0.5841421,0 -0.876213,0 -0.2570223,0 -0.516628,0.03635 -0.7710672,0 -0.073146,-0.01045 -0.1378374,-0.05561 -0.2102911,-0.0701 -0.2251975,-0.04504 -0.6697872,0 -0.9112615,0 -0.046731,0 -0.095261,0.01284 -0.140194,0 -0.040502,-0.01157 -0.066035,-0.05445 -0.1051457,-0.0701 -0.087443,-0.03498 -0.2248765,0.02264 -0.3154365,0 -0.2246326,-0.05616 -0.080551,-0.0701 -0.3154368,-0.0701"
         id="path9"
         inkscape:label="path1" />
    </clipPath>
  </defs>
  <g
     inkscape:label="Layer 1"
     inkscape:groupmode="layer"
     id="layer1"
     transform="matrix(0.88536738,0,0,0.88536738,0.95563063,1.7744518)">
    <path
       style="fill:#4d4d4d;stroke-width:0.0499999"
       d="m 0.77106741,14.194649 c 0.038109,-0.30998 -0.1144574,-0.600739 -0.070097,-0.911261 0.03966,-0.277616 0.2259342,-0.533846 0.2803881,-0.806116 0.011456,-0.05728 -0.010449,-0.117771 0,-0.175243 0.040043,-0.220235 0.095217,-0.212515 0.17524259,-0.420582 0.063435,-0.16493 0.066623,-0.296227 0.1401941,-0.455631 0.1024997,-0.222082 0.2843559,-0.376606 0.3855337,-0.595824 0.1375516,-0.298029 0.2469087,-0.600532 0.3504851,-0.9112618 0.1242836,-0.37285 0.1054102,-0.211349 0.2102911,-0.6308733 0.083093,-0.332371 0.1428966,-0.65354 0.2453398,-0.981358 0.025368,-0.08118 0.034455,-0.168116 0.070097,-0.24534 0.035304,-0.07649 0.100253,-0.136115 0.1401943,-0.210291 0.051988,-0.09655 0.120614,-0.330906 0.2102911,-0.420582 0.18104,-0.181041 0.4350736,-0.264757 0.630873,-0.49068 C 3.8200474,6.6163594 4.0305026,6.2161761 4.3460161,5.9231992 4.431627,5.8437033 4.536334,5.787314 4.6264043,5.7129081 4.8051885,5.5652167 4.9591813,5.3859112 5.1521319,5.2572774 5.3477574,5.1268606 5.5752155,5.0518472 5.7830052,4.9418409 6.101917,4.7730052 6.396226,4.5549002 6.7293152,4.416113 7.3564291,4.1548155 7.9325101,4.1707734 8.5868865,4.1707734 c 0.2634168,0 0.6497585,-0.011647 0.9112615,0.035049 0.075045,0.013401 1.147097,0.3119065 1.156601,0.3154368 0.558433,0.2074182 1.069567,0.5253323 1.612232,0.7710673 0.542692,0.2457473 1.037189,0.433052 1.542134,0.7360189 0.08077,0.04846 0.172981,0.079895 0.24534,0.140194 0.311312,0.2594266 0.599698,0.8298705 0.771067,1.1916485 0.208361,0.439874 0.48791,0.825017 0.630874,1.296796 0.06516,0.215022 0.192358,0.9093553 0.245339,1.1566013 0.110765,0.5169048 0.255104,1.0462138 0.280388,1.5771828 0.01112,0.233392 -0.02898,0.469118 0,0.70097 0.01195,0.09559 0.05736,0.184894 0.0701,0.280388 0.01081,0.08106 -0.01244,0.164511 0,0.245341 0.01123,0.07303 0.05965,0.137144 0.0701,0.210291 0.03528,0.246921 0,0.52128 0,0.771066 0,0.226418 0.03502,0.49074 -0.0701,0.700971 -0.167908,0.335816 -0.524833,0.618892 -0.876213,0.736019 -0.123211,0.04107 -0.392668,0.05462 -0.490679,0.0701 -0.117684,0.01858 -0.232072,0.05694 -0.350485,0.0701 -0.09289,0.01032 -0.187647,-0.01159 -0.280388,0 -0.0956,0.01195 -0.184894,0.05736 -0.280388,0.0701 -0.138964,0.01853 -0.280388,0 -0.420582,0 -0.384201,0 -0.772958,-0.01744 -1.156602,0 -0.566581,0.02575 -1.11734,0.174979 -1.682328,0.210291 -1.3812795,0 0.203464,-0.02643 -1.0514555,0.0701 -0.4412583,0.03394 -0.890701,-0.03529 -1.3318437,0 -0.3814546,0.03052 -0.6862884,0.0738 -1.0514555,0.140194 -0.1147045,0.02086 -0.3170364,0 -0.4205822,0 -0.2920709,0 -0.584142,0 -0.8762129,0 -0.2570223,0 -0.5166281,0.03635 -0.7710673,0 -0.073146,-0.01045 -0.1378373,-0.05561 -0.2102911,-0.0701 -0.2251974,-0.04504 -0.6697871,0 -0.9112615,0 -0.046731,0 -0.095261,0.01284 -0.140194,0 -0.040502,-0.01157 -0.066035,-0.05445 -0.1051456,-0.0701 -0.087443,-0.03498 -0.2248765,0.02264 -0.3154365,0 -0.2246326,-0.05616 -0.080551,-0.0701 -0.3154368,-0.0701"
       id="path1"
       inkscape:label="path1" />
    <path
       style="fill:#434343;fill-opacity:1;stroke-width:0.0499999"
       d="m 0,7.9560133 c 1.5730179,-0.094188 3.1559166,-0.1059069 4.7315498,-0.070097 0.8281646,0.018823 0.3934907,-0.021468 1.0164069,0.1752425 0.091867,0.029011 0.1958126,0.023966 0.2803882,0.070097 0.051282,0.027972 0.060794,0.1021786 0.1051454,0.1401939 0.039669,0.034002 0.097679,0.039729 0.1401943,0.070097 0.1344451,0.096032 0.2290807,0.2384194 0.350485,0.350485 0.067048,0.06189 0.1477545,0.1087975 0.2102911,0.1752428 0.2595311,0.2757517 0.5489668,0.6898513 0.7710673,0.9813584 0.1385364,0.1818291 0.2960095,0.3388681 0.4205822,0.5257281 0.2302642,0.345396 0.3256269,0.849435 0.4906793,1.226698 0.4248248,0.84965 -0.1078444,-0.266376 0.2102911,0.560776 0.1293312,0.336261 0.053491,0.06271 0.1752425,0.24534 0.033987,0.05098 0,0.405708 0,0.490679 0,0.222215 0.052138,0.526771 -0.035048,0.736019 -0.036227,0.08695 -0.093463,0.16356 -0.1401942,0.24534 -0.2591446,0.453503 -0.5095251,0.851933 -0.9813584,1.121552 -0.084935,0.04853 -0.3217952,0.153996 -0.3855336,0.175243 -0.1409039,0.04697 -1.1699618,-0.01199 -1.2967951,-0.03505 -0.2369632,-0.04308 -0.4633995,-0.135647 -0.7009704,-0.175242 -0.092191,-0.01536 -0.1881971,0.01536 -0.2803883,0 -0.025768,-0.0043 -0.046731,-0.02337 -0.070097,-0.03505 -0.058414,-0.01168 -0.1158775,-0.0301 -0.1752428,-0.03505 -0.081497,-0.0068 -0.1635596,0 -0.2453394,0 -0.1168286,-0.02337 -0.2321137,-0.05657 -0.3504853,-0.0701 -0.2911092,-0.03327 -0.5836137,-0.0547 -0.876213,-0.0701 -0.1516668,-0.008 -0.3037538,0 -0.4556307,0 -0.058414,0 -0.1198258,0.01847 -0.1752426,0 -0.015674,-0.0052 -0.019161,-0.03051 -0.035049,-0.03505 -0.267907,-0.07654 -0.1827181,0.02659 -0.4556306,-0.140194 C 1.9276353,14.387396 1.6470538,14.112681 1.3668921,13.879213 1.282428,13.808826 1.1870682,13.760644 1.1215525,13.668921 1.0176149,13.523409 0.94828592,13.340407 0.87621291,13.178242 0.75590473,12.907549 0.56150618,12.902965 0.28038814,12.862806 c -0.0765016,-0.01093 -0.16883806,-0.05917 -0.24533962,-0.0701 -0.0346962643,-0.005 -0.07189561,0.01108 -0.10514555,0 -0.01108332,-0.0037 0.008261,-0.02679 0,-0.03505 -0.01847221,-0.01847 -0.04531399,-0.02679 -0.07009704,-0.03505 -0.11803048,-0.03934 -0.23619903,-0.08305 -0.35048516,-0.140195 -0.0582324,-0.02912 -0.2102911,-0.0563 -0.2102911,-0.140194"
       id="path6"
       clip-path="url(#clipPath8)"
       transform="translate(0,-0.66592182)" />
    <path
       style="fill:#5b5b5b;fill-opacity:1;stroke-width:0.0499999"
       d="m -0.70097036,15.140959 c -0.0287024,-0.11768 -0.14566482,-0.159172 -0.2102911,-0.24534 -0.0443574,-0.05914 -0.0512694,-0.144394 -0.070097,-0.210291 -0.0350485,-0.116828 -0.070097,-0.233657 -0.10514554,-0.350485 -0.011683,-0.08178 -0.015013,-0.165196 -0.035049,-0.24534 -0.015259,-0.06104 -0.058843,-0.113343 -0.070097,-0.175242 -0.044426,-0.244341 0,-0.644095 0,-0.911262 0,-0.131585 -0.044537,-0.519532 0,-0.630873 0.033888,-0.08472 0.1233045,-0.135269 0.1752425,-0.210291 0.042186,-0.06094 0.25542582,-0.404262 0.35048521,-0.490679 0.0743637,-0.0676 0.15748717,-0.126436 0.2453396,-0.175243 0.0204253,-0.01135 0.053575,0.01652 0.070097,0 0.0165219,-0.01652 -0.0194413,-0.05714 0,-0.0701 0.0291621,-0.01944 0.0706624,0.0063 0.10514555,0 1.11232164,-0.20224 -0.78416366,0.09329 0.66592184,-0.175242 0.1852307,-0.0343 0.3758285,-0.0343 0.5607763,-0.0701 0.3812113,-0.07378 0.6410376,-0.193764 1.0164069,-0.280388 0.4052761,-0.09352 0.8170299,-0.119378 1.2266981,-0.175242 0.1180496,-0.0161 0.2326613,-0.05242 0.3504853,-0.0701 0.1161119,-0.01742 0.2351476,-0.01308 0.3504851,-0.03505 0.4125976,-0.07859 0.8147248,-0.229609 1.226698,-0.315436 0.7194007,-0.149876 1.442979,-0.164537 2.1379595,-0.4205826 0.5042625,-0.185781 1.078643,-0.463376 1.5421345,-0.736019 0.108922,-0.06407 0.20497,-0.14892 0.315437,-0.210291 0.100583,-0.05588 0.214127,-0.08564 0.315437,-0.140194 0.274369,-0.147737 0.502509,-0.3996415 0.7710666,-0.5607759 0.40572,-0.2434323 0.940132,-0.5096642 1.366892,-0.7009704 0.399381,-0.179033 0.320872,-0.1089316 0.70097,-0.2102911 0.301829,-0.080488 0.564358,-0.2063578 0.876213,-0.2453396 0.17389,-0.021736 0.352023,0.023162 0.525728,0 0.09549,-0.012732 0.18536,-0.054259 0.280389,-0.070097 0.149292,-0.024881 0.465161,-0.015764 0.595824,0.035049 0.136432,0.053057 0.253368,0.1473552 0.385534,0.2102911 0.113605,0.054098 0.231831,0.098316 0.350486,0.1401942 0.0802,0.028307 0.169266,0.03206 0.24534,0.070097 0.275147,0.1375738 0.472518,0.4427643 0.665921,0.6659218 0.437944,0.505319 0.731795,0.8284949 0.94631,1.4720379 0.04156,0.124678 -0.0063,0.7793946 0,0.9112616 0.04752,0.997979 0.02671,-0.287011 0.0701,0.841164 0.01078,0.280181 0,0.560776 0,0.841164 0,0.344718 0.02985,0.708181 0,1.051456 -0.05969,0.686405 -0.260227,1.404887 -0.665922,1.962717 -0.113927,0.156649 -0.16953,0.285899 -0.315436,0.420582 -0.588239,0.542989 -1.60577,0.793663 -2.348251,1.016407 -0.768152,0.230446 -1.536792,0.431794 -2.313202,0.630873 -0.77245,0.198064 -0.201646,0.107786 -0.876213,0.175243 -0.8418956,0.08419 -1.6776586,0.0701 -2.5234936,0.0701 -0.362168,0 -0.7252565,0.02581 -1.086504,0 -0.3508899,-0.02506 -1.5729993,-0.307412 -1.6122317,-0.315437 -0.4895749,-0.10014 -0.2694733,-0.03652 -0.736019,-0.140194 -0.094045,-0.0209 -0.1869254,-0.04673 -0.2803882,-0.0701 -0.1051454,-0.01168 -0.211456,-0.01555 -0.3154365,-0.03505 -0.1855126,-0.03478 -0.2761178,-0.0701 -0.4556307,-0.0701"
       id="path5"
       clip-path="url(#clipPath7)"
       transform="translate(0,-0.66592182)" />
    <path
       style="fill:#535353;fill-opacity:1;stroke-width:0.0577341"
       d="m 1.5656485,16.113518 c 0.042879,-0.221746 -0.039178,-0.398243 -0.08094,-0.60705 -0.010577,-0.05291 0.010577,-0.108968 0,-0.16188 -0.016733,-0.08366 -0.065677,-0.158878 -0.08094,-0.24282 -0.030702,-0.16886 0,-0.394701 0,-0.56658 0,-0.08094 -0.025595,-0.166034 0,-0.24282 0.075066,-0.225198 0.614213,-0.344642 0.8093996,-0.4047 0.4406303,-0.135578 0.6827768,-0.121409 1.1331595,-0.121409 0.3002889,0 0.6314406,-0.03742 0.9308096,0 0.1066051,0.01333 0.3208664,0.09625 0.4047,0.121409 0.1538712,0.04616 0.3442071,0.03437 0.4856398,0.121411 0.2793312,0.171895 0.5917328,0.393575 0.8093994,0.647519 0.1429753,0.166805 0.1214101,0.321494 0.1214101,0.52611 0,0.217125 -0.028954,0.636004 -0.2023498,0.809399 -0.1290744,0.129075 -0.367159,0.149367 -0.5261099,0.202351 -0.293431,0.09781 -0.057605,0.03841 -0.2428199,0.16188 -0.056122,0.03741 -0.1365062,-0.01463 -0.2023498,0 -0.070916,0.01576 -0.1327681,0.06007 -0.2023502,0.08094 -0.064024,0.0192 -0.2915717,0.0498 -0.3642296,0.08094 -0.044706,0.01916 -0.07625,0.06287 -0.1214102,0.08094 -0.025049,0.01005 -0.055889,-0.01005 -0.08094,0 -0.04516,0.01807 -0.074642,0.06757 -0.12141,0.08094 -0.1131002,0.03231 -0.2850595,0 -0.4046998,0 -0.3955686,0 -1.0238695,0.0503 -1.3759795,0 -0.106157,-0.01516 -0.1651532,-0.08094 -0.2832898,-0.08094"
       id="path10" />
    <path
       style="fill:#767676;fill-opacity:1;stroke-width:0.0499999"
       d="m 7.3601886,15.912027 c -0.046731,-0.04673 -0.1106387,-0.08108 -0.1401942,-0.140195 -0.1242463,-0.248492 -0.094916,-1.405853 0.035049,-1.752425 0.029581,-0.07888 0.1053328,-0.133597 0.140194,-0.210292 0.024651,-0.05423 0.014131,-0.119464 0.035049,-0.175242 0.01479,-0.03944 0.053504,-0.06643 0.070097,-0.105146 0.026968,-0.06292 0.053463,-0.25999 0.070097,-0.315436 0.045661,-0.152202 0.092797,-0.303961 0.140194,-0.455631 0.1408906,-0.45085 0.2998335,-0.947374 0.5257278,-1.366892 0.027694,-0.05143 0.075092,-0.0901 0.1051455,-0.140194 0.086089,-0.143482 0.1226587,-0.297902 0.2453396,-0.420582 0.1090195,-0.10902 0.6317104,-0.309597 0.8061158,-0.420583 0.1776881,-0.113074 0.3451265,-0.242124 0.5257279,-0.350485 0.456954,-0.2741723 0.988776,-0.4220654 1.507087,-0.5257276 0.261714,-0.052343 0.660996,0.1076031 0.876212,0.1752428 2.351141,0.7389298 -0.02832,-0.016669 0.981359,0.3504848 0.04527,0.01646 0.09711,0.01351 0.140194,0.03505 0.08161,0.04081 0.137294,0.120495 0.210291,0.175242 0.390904,0.293179 0.374034,0.624123 0.455631,1.086504 0.08119,0.460075 -0.0028,-0.452516 0.140194,0.595825 0.03806,0.279137 0,0.593594 0,0.876213 0,0.33799 0.10123,0.829419 0.210291,1.156601 0.01652,0.04957 0.06151,0.08866 0.0701,0.140194 0.01536,0.09219 -0.01833,0.188741 0,0.280388 0.0065,0.0324 0.0531,0.04176 0.0701,0.0701 0.02688,0.0448 0.05358,0.09063 0.0701,0.140195 0.0074,0.02217 -0.01045,0.0492 0,0.0701 0.04766,0.09532 0.187973,0.216576 0.210291,0.350486 0.0077,0.04609 0,0.09346 0,0.140194 0,0.140194 0,0.280388 0,0.420582 0,0.02055 0.0093,0.137092 0,0.140194 -0.06742,0.02247 -0.143752,0.0101 -0.210291,0.03505 -0.03094,0.0116 -0.04054,0.05532 -0.0701,0.0701 -0.0209,0.01045 -0.0484,-0.0087 -0.0701,0 -0.03911,0.01564 -0.06643,0.0535 -0.105146,0.0701 -0.07862,0.03369 -0.240583,0.04515 -0.315436,0.0701 -0.04957,0.01652 -0.08951,0.05743 -0.140194,0.0701 -0.05498,0.01375 -0.120265,-0.01375 -0.175243,0 -0.07168,0.01792 -0.136854,0.06194 -0.210291,0.0701 -0.06967,0.0077 -0.140542,-0.007 -0.210291,0 -0.09586,0.0096 -0.184793,0.05815 -0.280388,0.0701 -0.143494,0.01794 -0.749583,-0.03769 -0.806116,0 -0.01944,0.01296 0.01652,0.05357 0,0.0701 -0.0413,0.0413 -0.116828,0 -0.175243,0 -0.385534,0 -0.771067,0 -1.156601,0 -0.9813587,0 -1.9627171,0 -2.9440754,0"
       id="path11" />
  </g>
</svg>
