<?xml version="1.0" encoding="UTF-8" standalone="no"?>
<!-- Created with Inkscape (http://www.inkscape.org/) -->

<svg
   width="64"
   height="64"
   viewBox="0 0 16.933333 16.933333"
   version="1.1"
   id="svg1"
   inkscape:version="1.3 (0e150ed6c4, 2023-07-21)"
   sodipodi:docname="iron_ore_overlay.svg"
   xmlns:inkscape="http://www.inkscape.org/namespaces/inkscape"
   xmlns:sodipodi="http://sodipodi.sourceforge.net/DTD/sodipodi-0.dtd"
   xmlns="http://www.w3.org/2000/svg"
   xmlns:svg="http://www.w3.org/2000/svg">
  <sodipodi:namedview
     id="namedview1"
     pagecolor="#2d2d2d"
     bordercolor="#000000"
     borderopacity="0.25"
     inkscape:showpageshadow="2"
     inkscape:pageopacity="0.0"
     inkscape:pagecheckerboard="0"
     inkscape:deskcolor="#3d3d3d"
     inkscape:document-units="mm"
     inkscape:zoom="7.5490593"
     inkscape:cx="29.937505"
     inkscape:cy="34.772545"
     inkscape:window-width="1680"
     inkscape:window-height="987"
     inkscape:window-x="-8"
     inkscape:window-y="-8"
     inkscape:window-maximized="1"
     inkscape:current-layer="layer1" />
  <defs
     id="defs1">
    <clipPath
       clipPathUnits="userSpaceOnUse"
       id="clipPath7">
      <path
         style="fill:#4d4d4d;stroke-width:0.0499999"
         d="m 0.7710674,14.860571 c 0.038109,-0.30998 -0.1144574,-0.600739 -0.070097,-0.911261 0.03966,-0.277616 0.2259342,-0.533846 0.28038809,-0.806116 0.0114559,-0.05728 -0.0104489,-0.117771 0,-0.175243 0.040043,-0.220235 0.095217,-0.212515 0.17524261,-0.420582 0.063435,-0.16493 0.066623,-0.296227 0.1401941,-0.455631 C 1.3992949,11.869656 1.5811511,11.715132 1.6823289,11.495914 1.8198805,11.197885 1.9292376,10.895382 2.032814,10.584652 2.1570976,10.211802 2.1382242,10.373303 2.2431051,9.9537787 2.3261981,9.6214078 2.3860017,9.3002386 2.4884449,8.9724206 2.5138129,8.8912406 2.5228999,8.8043046 2.5585419,8.7270807 2.5938459,8.6505907 2.658795,8.5909658 2.6987362,8.5167896 2.7507242,8.4202397 2.8193503,8.1858837 2.9090273,8.0962077 3.0900674,7.9151668 3.344101,7.8314508 3.5399004,7.6055278 3.8200473,7.2822811 4.0305027,6.882098 4.3460162,6.5891209 4.4316269,6.509625 4.5363339,6.4532359 4.6264044,6.3788298 4.8051884,6.2311386 4.9591812,6.0518331 5.152132,5.9231993 5.3477573,5.7927825 5.5752156,5.7177691 5.7830053,5.6077628 6.1019169,5.4389269 6.3962259,5.2208221 6.7293151,5.0820349 7.3564292,4.8207372 7.9325102,4.8366953 8.5868865,4.8366953 c 0.2634167,0 0.6497584,-0.011647 0.9112615,0.035049 0.075045,0.013401 1.147097,0.3119067 1.156601,0.315437 0.558433,0.207418 1.069567,0.5253321 1.612232,0.7710673 0.542692,0.2457471 1.037189,0.433052 1.542134,0.7360187 0.08077,0.04846 0.172981,0.079895 0.24534,0.140194 0.311312,0.2594266 0.599698,0.8298706 0.771067,1.1916487 0.208361,0.439874 0.48791,0.8250168 0.630874,1.2967959 0.06516,0.2150221 0.192358,0.9093551 0.245339,1.1566011 0.110765,0.516905 0.255104,1.046214 0.280388,1.577183 0.01112,0.233392 -0.02898,0.469118 0,0.70097 0.01195,0.09559 0.05736,0.184894 0.0701,0.280388 0.01081,0.08106 -0.01244,0.164511 0,0.245341 0.01123,0.07303 0.05965,0.137144 0.0701,0.210291 0.03528,0.246921 0,0.52128 0,0.771066 0,0.226418 0.03502,0.49074 -0.0701,0.700971 -0.167908,0.335816 -0.524833,0.618892 -0.876213,0.736019 -0.123211,0.04107 -0.392668,0.05462 -0.490679,0.0701 -0.117684,0.01858 -0.232072,0.05694 -0.350485,0.0701 -0.09289,0.01032 -0.187647,-0.01159 -0.280388,0 -0.0956,0.01195 -0.184894,0.05736 -0.280388,0.0701 -0.138964,0.01853 -0.280388,0 -0.420582,0 -0.384201,0 -0.772958,-0.01744 -1.156602,0 -0.566581,0.02575 -1.11734,0.174979 -1.682328,0.210291 -1.3812794,0 0.203464,-0.02643 -1.0514554,0.0701 -0.4412583,0.03394 -0.890701,-0.03529 -1.3318437,0 -0.3814546,0.03052 -0.6862884,0.0738 -1.0514555,0.140194 -0.1147046,0.02086 -0.3170365,0 -0.4205822,0 -0.2920709,0 -0.5841421,0 -0.876213,0 -0.2570223,0 -0.516628,0.03635 -0.7710672,0 -0.073146,-0.01045 -0.1378374,-0.05561 -0.2102911,-0.0701 -0.2251975,-0.04504 -0.6697872,0 -0.9112615,0 -0.046731,0 -0.095261,0.01284 -0.140194,0 -0.040502,-0.01157 -0.066035,-0.05445 -0.1051457,-0.0701 -0.087443,-0.03498 -0.2248765,0.02264 -0.3154365,0 -0.2246326,-0.05616 -0.080551,-0.0701 -0.3154368,-0.0701"
         id="path8"
         inkscape:label="path1" />
    </clipPath>
    <clipPath
       clipPathUnits="userSpaceOnUse"
       id="clipPath8">
      <path
         style="fill:#4d4d4d;stroke-width:0.0499999"
         d="m 0.7710674,14.860571 c 0.038109,-0.30998 -0.1144574,-0.600739 -0.070097,-0.911261 0.03966,-0.277616 0.2259342,-0.533846 0.28038809,-0.806116 0.0114559,-0.05728 -0.0104489,-0.117771 0,-0.175243 0.040043,-0.220235 0.095217,-0.212515 0.17524261,-0.420582 0.063435,-0.16493 0.066623,-0.296227 0.1401941,-0.455631 C 1.3992949,11.869656 1.5811511,11.715132 1.6823289,11.495914 1.8198805,11.197885 1.9292376,10.895382 2.032814,10.584652 2.1570976,10.211802 2.1382242,10.373303 2.2431051,9.9537787 2.3261981,9.6214078 2.3860017,9.3002386 2.4884449,8.9724206 2.5138129,8.8912406 2.5228999,8.8043046 2.5585419,8.7270807 2.5938459,8.6505907 2.658795,8.5909658 2.6987362,8.5167896 2.7507242,8.4202397 2.8193503,8.1858837 2.9090273,8.0962077 3.0900674,7.9151668 3.344101,7.8314508 3.5399004,7.6055278 3.8200473,7.2822811 4.0305027,6.882098 4.3460162,6.5891209 4.4316269,6.509625 4.5363339,6.4532359 4.6264044,6.3788298 4.8051884,6.2311386 4.9591812,6.0518331 5.152132,5.9231993 5.3477573,5.7927825 5.5752156,5.7177691 5.7830053,5.6077628 6.1019169,5.4389269 6.3962259,5.2208221 6.7293151,5.0820349 7.3564292,4.8207372 7.9325102,4.8366953 8.5868865,4.8366953 c 0.2634167,0 0.6497584,-0.011647 0.9112615,0.035049 0.075045,0.013401 1.147097,0.3119067 1.156601,0.315437 0.558433,0.207418 1.069567,0.5253321 1.612232,0.7710673 0.542692,0.2457471 1.037189,0.433052 1.542134,0.7360187 0.08077,0.04846 0.172981,0.079895 0.24534,0.140194 0.311312,0.2594266 0.599698,0.8298706 0.771067,1.1916487 0.208361,0.439874 0.48791,0.8250168 0.630874,1.2967959 0.06516,0.2150221 0.192358,0.9093551 0.245339,1.1566011 0.110765,0.516905 0.255104,1.046214 0.280388,1.577183 0.01112,0.233392 -0.02898,0.469118 0,0.70097 0.01195,0.09559 0.05736,0.184894 0.0701,0.280388 0.01081,0.08106 -0.01244,0.164511 0,0.245341 0.01123,0.07303 0.05965,0.137144 0.0701,0.210291 0.03528,0.246921 0,0.52128 0,0.771066 0,0.226418 0.03502,0.49074 -0.0701,0.700971 -0.167908,0.335816 -0.524833,0.618892 -0.876213,0.736019 -0.123211,0.04107 -0.392668,0.05462 -0.490679,0.0701 -0.117684,0.01858 -0.232072,0.05694 -0.350485,0.0701 -0.09289,0.01032 -0.187647,-0.01159 -0.280388,0 -0.0956,0.01195 -0.184894,0.05736 -0.280388,0.0701 -0.138964,0.01853 -0.280388,0 -0.420582,0 -0.384201,0 -0.772958,-0.01744 -1.156602,0 -0.566581,0.02575 -1.11734,0.174979 -1.682328,0.210291 -1.3812794,0 0.203464,-0.02643 -1.0514554,0.0701 -0.4412583,0.03394 -0.890701,-0.03529 -1.3318437,0 -0.3814546,0.03052 -0.6862884,0.0738 -1.0514555,0.140194 -0.1147046,0.02086 -0.3170365,0 -0.4205822,0 -0.2920709,0 -0.5841421,0 -0.876213,0 -0.2570223,0 -0.516628,0.03635 -0.7710672,0 -0.073146,-0.01045 -0.1378374,-0.05561 -0.2102911,-0.0701 -0.2251975,-0.04504 -0.6697872,0 -0.9112615,0 -0.046731,0 -0.095261,0.01284 -0.140194,0 -0.040502,-0.01157 -0.066035,-0.05445 -0.1051457,-0.0701 -0.087443,-0.03498 -0.2248765,0.02264 -0.3154365,0 -0.2246326,-0.05616 -0.080551,-0.0701 -0.3154368,-0.0701"
         id="path9"
         inkscape:label="path1" />
    </clipPath>
  </defs>
  <g
     inkscape:label="Layer 1"
     inkscape:groupmode="layer"
     id="layer1"
     transform="matrix(0.88536738,0,0,0.88536738,0.95563063,1.7744518)">
    <path
       style="fill:#6e6e57;fill-opacity:1;stroke-width:0.0564736"
       d="m 3.2355581,12.68236 c 0.1833059,0.04987 0.3079306,-0.05132 0.4750369,-0.07917 0.114503,-0.01908 0.2413182,0.01437 0.3562779,0 0.1207167,-0.01509 0.2393022,-0.04575 0.3562775,-0.07917 0.2230208,-0.06372 -0.022111,-0.0087 0.1187594,-0.07917 0.4437346,-0.221867 0.5143081,-0.473776 0.6333824,-0.950073 0.013481,-0.05393 0.030398,-0.417073 0.039586,-0.435451 0.01669,-0.03338 0.05847,-0.04812 0.079173,-0.07917 0.054407,-0.08161 -0.044043,-0.268191 0,-0.356277 0.050278,-0.100557 0.2187307,-0.267711 0.3166911,-0.316692 0.04721,-0.02361 0.1144286,0.02928 0.1583458,0 0.02455,-0.01637 0.015035,-0.06281 0.039587,-0.07917 0.021959,-0.01464 0.055568,0.0118 0.079173,0 0.069965,-0.03498 0.1653521,-0.153674 0.2771049,-0.07917 0.00354,0.0024 0,0.592963 0,0.791728 0,0.09873 0.029642,0.267354 0,0.356278 -0.011801,0.03541 -0.062482,0.04579 -0.079173,0.07917 -0.011801,0.0236 0.00835,0.05414 0,0.07917 -0.011801,0.03541 -0.06737,0.04377 -0.079173,0.07917 -0.00835,0.02504 0.01464,0.05721 0,0.07917 -0.016367,0.02455 -0.065977,0.01319 -0.079173,0.03959 -0.017703,0.03541 0.015593,0.08237 0,0.11876 -0.02599,0.06064 -0.086025,0.101061 -0.1187591,0.158345 -0.068487,0.119853 -0.1074459,0.24317 -0.1979323,0.356278 -0.04663,0.05829 -0.1169401,0.09624 -0.1583456,0.158345 -0.01464,0.02196 0.01464,0.05721 0,0.07917 -0.066385,0.09958 -0.1631586,0.08399 -0.2375184,0.158346 -0.09418,0.09418 0.2005812,0.06711 -0.1187594,0.158346 -0.050751,0.0145 -0.1062819,-0.0087 -0.1583455,0 -0.1237999,0.02063 -0.2432694,0.120676 -0.3562776,0.158345 -0.037555,0.01252 -0.082004,-0.0147 -0.1187593,0 -0.034653,0.01386 -0.048119,0.05847 -0.079173,0.07917 -0.036793,0.02453 -0.1184028,-0.01997 -0.1583455,0 -0.1344993,0.06725 -0.1109151,0.07917 -0.2375185,0.07917 -0.1660795,0 -0.8939651,0.04785 -0.9896603,0 -0.014559,-0.0073 0,-0.132865 0,-0.158346"
       id="path20" />
    <path
       style="fill:#6e6e57;fill-opacity:1;stroke-width:0.0564736"
       d="m 7.2337857,7.0610896 c 0.062678,-0.1559522 0.052807,-0.3168417 0.079173,-0.475037 0.0097,-0.058209 0.0676,-0.1004796 0.079173,-0.1583455 0.01294,-0.064696 -0.024502,-0.1366736 0,-0.197932 0.01767,-0.044174 0.057896,-0.076205 0.079173,-0.1187594 0.064097,-0.128194 0.064722,-0.2788343 0.1583455,-0.395864 0.018433,-0.02304 0.058309,-0.018722 0.079173,-0.039586 0.103148,-0.103148 0.1991352,-0.3038969 0.3562776,-0.3562776 0.037555,-0.012518 0.080696,0.010875 0.1187594,0 0.4460413,-0.1274403 -0.044224,-0.017473 0.2375184,-0.1583458 0.059323,-0.029663 0.535293,-0.018917 0.5542096,0 0.027992,0.027992 0,0.079173 0,0.1187594 0,0.040765 0.021415,0.4429146 0,0.4750369 -0.020704,0.031054 -0.065312,0.04452 -0.079173,0.079173 -0.014703,0.036755 0.017703,0.083352 0,0.1187591 -0.013197,0.026391 -0.058309,0.018722 -0.079173,0.039587 -0.00933,0.00933 0.00933,0.030256 0,0.039586 C 8.6958496,6.1532356 8.6958836,6.0857079 8.5401371,6.1506022 8.411008,6.2044063 7.8571355,6.5024683 7.7879953,6.5464665 c -0.011132,0.00709 0.00933,0.030256 0,0.039586 -0.018663,0.018663 -0.06737,-0.023605 -0.079173,0 -0.011801,0.023605 0,0.052782 0,0.079173 -0.026391,0.02639 -0.05847,0.048119 -0.079173,0.079173 -0.021992,0.032985 0.016723,0.1248972 0,0.1583455 -0.062528,0.1250557 -0.079173,0.043908 -0.079173,0.1583456"
       id="path21" />
    <path
       style="fill:#6e6e57;fill-opacity:1;stroke-width:0.0564736"
       d="m 10.954908,13.23657 c -0.320891,-0.160446 -0.0174,0.03993 -0.237518,-0.356278 -0.02311,-0.04159 -0.08264,-0.04821 -0.118759,-0.07917 -0.05667,-0.04858 -0.109768,-0.101671 -0.158346,-0.158346 -0.123845,-0.144485 -0.142686,-0.380204 -0.277105,-0.514623 -0.01866,-0.01866 -0.06737,0.02361 -0.07917,0 -0.0236,-0.04721 0.0145,-0.107594 0,-0.158345 -0.01307,-0.04575 -0.0615,-0.07459 -0.07917,-0.11876 -0.03691,-0.09228 0.06277,-0.450904 0.158346,-0.514623 0.02196,-0.01464 0.05557,0.0118 0.07917,0 0.0118,-0.0059 -0.0118,-0.03369 0,-0.03959 0.186999,-0.0935 0.467534,-0.03959 0.672969,-0.03959 0.161912,0 0.570409,-0.04738 0.712555,0 0.03541,0.0118 0.04579,0.06248 0.07917,0.07917 0.0236,0.0118 0.05414,-0.0083 0.07917,0 0.208205,0.0694 0.103355,0.07147 0.277105,0.158346 0.106757,0.05338 0.131657,0.0083 0.197932,0.118759 0.200633,0.334389 -0.05699,-0.04351 0.03959,0.197932 0.01767,0.04417 0.0579,0.0762 0.07917,0.118759 0.0236,0.04721 -0.0145,0.107595 0,0.158346 0.01621,0.05674 0.06296,0.101604 0.07917,0.158345 0.02972,0.104015 0.03034,0.423606 0,0.514624 -0.0089,0.02667 -0.1518,0.155073 -0.158346,0.158345 -0.129196,0.0646 -0.07651,-0.08449 -0.158346,0.07917"
       id="path23" />
    <path
       style="fill:#6e6e57;fill-opacity:1;stroke-width:0.0564736"
       d="m 10.875736,8.2486822 c 0.471854,-0.0033 0.941974,-0.038788 1.385524,0.1583455 0.186675,0.082967 0.260215,0.2070636 0.395864,0.3562775 0.100423,0.1104657 0.211127,0.2111276 0.316691,0.3166914 0.07636,0.076359 0.226458,0.1362242 0.277105,0.2375185 0.0177,0.035407 -0.02799,0.090767 0,0.1187593 0.0093,0.00933 0.02861,-0.00732 0.03959,0 0.07234,0.048227 0.13594,0.13594 0.197932,0.197932 0.02639,0.026391 0.05847,0.048119 0.07917,0.079173 0.0073,0.010979 -0.01098,0.032267 0,0.039586 0.03472,0.023145 0.08538,0.014551 0.11876,0.039587 0.09643,0.072323 -0.01195,0.073197 0.07917,0.1187594 0.232,0.1159992 0.378566,0.1445062 0.593796,0.3166902 0.132363,0.105891 0.226755,0.340132 0.316692,0.475037 0.09255,0.13882 0.316691,0.307049 0.316691,0.475037 0,0.0132 0,-0.02639 0,-0.03959 0,-0.05278 0,-0.105564 0,-0.158346 0,-0.07917 0,-0.158345 0,-0.237518 0,-0.101753 0.03702,-0.8364468 0,-0.9104872 -0.01669,-0.033382 -0.06248,-0.045791 -0.07917,-0.079173 -0.0177,-0.035407 0.02799,-0.090767 0,-0.1187591 -0.02087,-0.020865 -0.05831,-0.018722 -0.07917,-0.039586 -0.02087,-0.020865 -0.01872,-0.058309 -0.03959,-0.079173 -0.02495,-0.024953 -0.339741,-0.1792243 -0.395864,-0.197932 -0.05161,-0.017204 -0.109683,-0.015256 -0.158346,-0.039587 -0.142372,-0.071186 -0.02901,-0.068599 -0.118759,-0.1583455 -0.04173,-0.041728 -0.111136,-0.043766 -0.158346,-0.079173 -0.07191,-0.053935 -0.187721,-0.162823 -0.237518,-0.2375184 -0.0073,-0.010979 0.0093,-0.030256 0,-0.039587 -0.08511,-0.08511 -0.25424,-0.1522017 -0.316691,-0.2771046 -0.0118,-0.023605 0.0118,-0.055568 0,-0.079173 -0.0059,-0.011801 -0.02861,0.00732 -0.03959,0 -0.03105,-0.020704 -0.04717,-0.059971 -0.07917,-0.079173 -0.101141,-0.060684 -0.467509,-0.1668455 -0.514624,-0.2375185 -0.01464,-0.021959 0.0118,-0.055568 0,-0.079173 -0.0059,-0.011801 -0.03026,0.00933 -0.03959,0 -0.02087,-0.020865 -0.01872,-0.058309 -0.03959,-0.079173 -0.0093,-0.00933 -0.02778,0.0059 -0.03959,0 -0.147429,-0.073714 -0.106195,-0.088495 -0.237519,-0.197932 -0.05911,-0.049257 -0.155252,-0.054739 -0.197932,-0.1187594 -0.01464,-0.021959 0.0118,-0.055568 0,-0.079173 -0.0024,-0.00475 -0.554584,0 -0.752141,0 -0.103263,0 -0.340075,-0.047688 -0.435451,0 -0.03338,0.01669 -0.04377,0.06737 -0.07917,0.079173 -0.02504,0.00835 -0.05557,-0.011801 -0.07917,0 -0.01902,0.00951 -0.08986,0.2193056 -0.11876,0.2771049"
       id="path24" />
    <path
       style="fill:#6e6e57;fill-opacity:1;stroke-width:0.0564736"
       d="m 3.8293544,11.059317 c -0.1826436,-0.01037 -0.3539044,-0.0012 -0.5146234,0.07917 -0.075572,0.03779 -0.1194831,0.126966 -0.197932,0.158346 -0.036755,0.0147 -0.083352,-0.0177 -0.1187594,0 -0.02639,0.0132 -0.018722,0.05831 -0.039586,0.07917 -0.1103237,0.110323 -0.3052622,0.180788 -0.395864,0.316691 -0.025551,0.03833 -0.017279,0.192902 -0.039586,0.237518 -0.034426,0.06885 -0.1744025,0.16693 -0.197932,0.237519 -0.00835,0.02504 0.011801,0.05557 0,0.07917 -0.0059,0.0118 -0.02827,-0.0068 -0.039586,0 -0.1334247,0.08005 -0.2007304,0.206409 -0.3562776,0.237519 -0.030238,0.006 -0.1259205,-0.01621 -0.1583457,0 -0.091646,0.04582 -0.2778951,0.138157 -0.3958642,0.07917 -0.00574,-0.0029 0,-0.677908 0,-0.870901 0,-0.109778 -0.011802,0.05729 0.079173,-0.07917 0.014639,-0.02196 0,-0.05278 0,-0.07917 0.026391,-0.05278 0.043766,-0.111136 0.079173,-0.158345 0.039586,-0.05278 0.1324642,0.0082 0.1979321,0 0.1463905,-0.0183 0.293119,-0.04036 0.4354506,-0.07917 0.2259315,-0.06162 0.3737857,-0.243355 0.593796,-0.316692 0.4351785,-0.145059 -0.18885,0.09624 0.395864,-0.07917 0.056523,-0.01696 0.1016044,-0.06296 0.1583458,-0.07917 0.045251,-0.01293 0.2299689,0 0.2771049,0 0.052782,0 0.1347408,-0.04721 0.1583456,0 0.011801,0.0236 0,0.05278 0,0.07917"
       id="path25" />
    <path
       style="fill:#6e6e57;fill-opacity:1;stroke-width:0.0564736"
       d="M 4.6210824,9.1591695 C 4.4870801,9.090572 4.237825,9.0350304 4.1460455,8.8820646 4.1245768,8.8462833 4.1279268,8.7990866 4.1064593,8.7633052 4.0719412,8.7057755 3.9676152,8.6336292 3.9481135,8.5653732 3.8751017,8.309832 3.9247382,8.1046648 3.9876999,7.8528179 c 0.038253,-0.1530092 0.097238,-0.3491694 0.197932,-0.475037 0.047443,-0.059303 0.8505263,-0.049774 0.8709012,-0.039586 0.1039887,0.051995 0.098286,0.1777313 0.197932,0.2375184 0.051826,0.031096 0.2113165,0.040153 0.2375185,0.1187594 0.038601,0.1158024 0,0.8168954 0,0.9896603"
       id="path26" />
  </g>
</svg>
