<?xml version="1.0" encoding="UTF-8" standalone="no"?>
<svg
   id="Outline"
   viewBox="0 0 24 24"
   width="512"
   height="512"
   version="1.1"
   sodipodi:docname="trash.svg"
   inkscape:version="1.3 (0e150ed6c4, 2023-07-21)"
   xmlns:inkscape="http://www.inkscape.org/namespaces/inkscape"
   xmlns:sodipodi="http://sodipodi.sourceforge.net/DTD/sodipodi-0.dtd"
   xmlns="http://www.w3.org/2000/svg"
   xmlns:svg="http://www.w3.org/2000/svg">
  <defs
     id="defs3" />
  <sodipodi:namedview
     id="namedview3"
     pagecolor="#ffffff"
     bordercolor="#000000"
     borderopacity="0.25"
     inkscape:showpageshadow="2"
     inkscape:pageopacity="0.0"
     inkscape:pagecheckerboard="0"
     inkscape:deskcolor="#d1d1d1"
     inkscape:zoom="0.73144531"
     inkscape:cx="106.63818"
     inkscape:cy="215.3271"
     inkscape:window-width="1680"
     inkscape:window-height="987"
     inkscape:window-x="-8"
     inkscape:window-y="-8"
     inkscape:window-maximized="1"
     inkscape:current-layer="Outline" />
  <path
     d="M21,4H17.9A5.009,5.009,0,0,0,13,0H11A5.009,5.009,0,0,0,6.1,4H3A1,1,0,0,0,3,6H4V19a5.006,5.006,0,0,0,5,5h6a5.006,5.006,0,0,0,5-5V6h1a1,1,0,0,0,0-2ZM11,2h2a3.006,3.006,0,0,1,2.829,2H8.171A3.006,3.006,0,0,1,11,2Zm7,17a3,3,0,0,1-3,3H9a3,3,0,0,1-3-3V6H18Z"
     id="path1"
     style="fill:#f9f9f9" />
  <path
     d="M10,18a1,1,0,0,0,1-1V11a1,1,0,0,0-2,0v6A1,1,0,0,0,10,18Z"
     id="path2"
     style="fill:#f9f9f9" />
  <path
     d="M14,18a1,1,0,0,0,1-1V11a1,1,0,0,0-2,0v6A1,1,0,0,0,14,18Z"
     id="path3"
     style="fill:#f9f9f9" />
</svg>
