<?xml version="1.0" encoding="UTF-8" standalone="no"?>
<!-- Created with Inkscape (http://www.inkscape.org/) -->

<svg
   width="64"
   height="64"
   viewBox="0 0 16.933333 16.933333"
   version="1.1"
   id="svg1"
   inkscape:version="1.3 (0e150ed6c4, 2023-07-21)"
   sodipodi:docname="wolf.svg"
   xmlns:inkscape="http://www.inkscape.org/namespaces/inkscape"
   xmlns:sodipodi="http://sodipodi.sourceforge.net/DTD/sodipodi-0.dtd"
   xmlns="http://www.w3.org/2000/svg"
   xmlns:svg="http://www.w3.org/2000/svg">
  <sodipodi:namedview
     id="namedview1"
     pagecolor="#2d2d2d"
     bordercolor="#000000"
     borderopacity="0.25"
     inkscape:showpageshadow="2"
     inkscape:pageopacity="0.0"
     inkscape:pagecheckerboard="0"
     inkscape:deskcolor="#3d3d3d"
     inkscape:document-units="mm"
     inkscape:zoom="2.6689955"
     inkscape:cx="-56.200919"
     inkscape:cy="47.396108"
     inkscape:window-width="1680"
     inkscape:window-height="987"
     inkscape:window-x="-8"
     inkscape:window-y="-8"
     inkscape:window-maximized="1"
     inkscape:current-layer="layer1" />
  <defs
     id="defs1" />
  <g
     inkscape:label="Layer 1"
     inkscape:groupmode="layer"
     id="layer1"
     transform="translate(-0.29739653,1.2887183)">
    <path
       id="path5-39"
       style="fill:#808080;stroke-width:0.297366"
       transform="rotate(29.134027)"
       d="m 15.686172,5.4860521 c 0,1.3139804 -0.0048,1.9124319 -0.333315,1.9124321 -0.328496,-2e-7 -0.23646,-0.4222916 -0.23646,-1.736272 0,-1.3139803 -0.081,-2.4263495 0.247498,-2.4263497 0.328495,2e-7 0.322277,0.9362093 0.322277,2.2501896 z"
       sodipodi:nodetypes="sssss" />
    <path
       id="path5"
       style="fill:#808080;stroke-width:0.297366"
       transform="rotate(42.053583)"
       d="m 12.231216,5.616769 c 0,1.3139803 0.124065,2.0270261 -0.20443,2.0270263 -0.328495,-2e-7 -0.318172,-0.6539004 -0.318172,-1.9678808 0,-1.3139803 -0.03325,-2.3449581 0.295242,-2.3449583 0.328495,2e-7 0.22736,0.9718324 0.22736,2.2858128 z"
       sodipodi:nodetypes="sssss" />
    <path
       id="path4-9"
       style="fill:#999999;stroke-width:0.264583"
       transform="rotate(-17.57985)"
       d="m 11.201224,12.401676 c 0.0034,0.608881 -0.232349,-0.151765 -0.588219,-0.151765 -0.35587,0 -0.522613,0.411511 -0.299566,-0.293145 0.212631,-0.671745 0.485455,-1.353249 0.833364,-1.278401 0.186889,0.04021 0.04984,0.909011 0.05442,1.723311 z"
       sodipodi:nodetypes="sssss" />
    <path
       id="ellipse6"
       style="fill:#999999;stroke-width:0.231713"
       d="m 13.534878,10.26018 c -0.523559,1.893219 -1.784406,1.536549 -4.3446628,1.536549 -2.4244866,0 -4.2621135,-0.207337 -4.073122,-1.338285 C 5.3101901,9.3029292 5.9097542,9.0139211 8.5113615,8.2279711 12.147398,7.1295182 13.840319,9.1556876 13.534878,10.26018 Z"
       sodipodi:nodetypes="sssss" />
    <path
       id="path2"
       style="fill:#999999;stroke-width:0.264583"
       d="M 5.8681602,9.6375895 C 5.9691858,9.8920118 4.9745895,10.788123 3.4252494,11.140919 1.9038418,11.487355 0.86621674,12.17559 0.76519226,11.921169 0.66416963,11.666745 1.8791665,11.235531 3.2081035,10.41784 4.7078752,9.4950337 5.7671332,9.38317 5.8681602,9.6375895 Z"
       sodipodi:nodetypes="sssss" />
    <path
       id="path3"
       style="fill:#adadad;stroke-width:0.264583"
       transform="rotate(30.127046)"
       d="m 18.729154,1.3420034 c -0.01895,0.3690709 -1.001874,0.5360961 -1.37287,0.7158054 -0.185498,0.089854 1.211731,-0.059239 1.106557,0.08618 C 18.357668,2.289408 17.257578,2.556409 16.897836,2.7072536 15.714744,3.2033397 14.300037,2.5900122 14.036584,1.5044665 13.862267,0.78620238 14.949588,-0.20086442 16.391346,0.39581851 18.13394,1.1170047 18.760693,0.72769728 18.729154,1.3420034 Z"
       sodipodi:nodetypes="sssssss" />
    <path
       id="path4"
       style="fill:#999999;stroke-width:0.264583"
       transform="rotate(-17.579851)"
       d="m 10.064189,11.459585 c 0.199425,0.711702 -0.220487,0.827848 -0.5741837,0.78858 -0.3906532,-0.04337 -0.9482129,-0.340831 -0.7145341,-0.78858 0.3419701,-0.655245 0.5044327,-1.66549 0.6443591,-1.338284 0.1088408,0.254515 0.4836497,0.764749 0.6443587,1.338284 z"
       sodipodi:nodetypes="sssss" />
    <path
       id="ellipse7"
       style="fill:#999999;stroke-width:0.297366"
       transform="rotate(-24.691859)"
       d="m 1.5047853,14.871788 c 0,1.31398 0.095336,1.928233 -0.2331596,1.928233 -0.32849517,0 -0.32979456,-0.634746 -0.32979458,-1.948727 2e-8,-1.31398 -0.0616591,-2.337081 0.26683608,-2.337081 0.3284951,0 0.2961181,1.043595 0.2961181,2.357575 z"
       sodipodi:nodetypes="sssss" />
    <path
       id="path5-4"
       style="fill:#999999;stroke-width:0.297366"
       transform="rotate(-23.143488)"
       d="m 7.1828422,16.959625 c 0,1.313981 0.073664,1.762164 -0.2548312,1.762164 -0.3284951,0 -0.400912,-0.448697 -0.400912,-1.762677 0,-1.31398 0.059155,-2.429596 0.3876501,-2.429596 0.3284951,0 0.2680931,1.116129 0.2680931,2.430109 z"
       sodipodi:nodetypes="sssss" />
    <path
       id="path6"
       style="fill:#800000;stroke-width:0.264583"
       d="m 13.799387,9.4952766 c -0.269332,0.066529 -0.281027,0.08067 -0.49566,0.037175 -0.305738,-0.061958 -0.272614,-0.00405 -0.272614,-0.2230474 0,-0.1984567 0.04379,-0.4514111 0.223048,-0.3345711 0.365903,0.2384882 0.641776,0.4965947 0.545226,0.5204435 z"
       sodipodi:nodetypes="sssss" />
    <ellipse
       style="fill:#4d4d4d;fill-opacity:1;stroke-width:0.264583"
       id="path7"
       cx="15.420832"
       cy="10.329865"
       rx="0.38553369"
       ry="0.42058218" />
  </g>
</svg>
